<?xml version="1.0" encoding="utf-8"?>
<svg xmlns="http://www.w3.org/2000/svg" viewBox="0 0 500 500">
  <ellipse style="stroke-width: 0px; stroke: rgb(50, 215, 230); fill: rgb(50, 215, 230);" cx="250.497" cy="250.06" rx="247.883" ry="247.886"/>
  <path d="M 126.875 79.825 C 118.247 80.689 111.642 87.951 111.642 96.724 L 111.642 372.988 C 111.642 382.346 119.175 389.887 128.641 389.887 L 336.123 389.887 C 345.587 389.887 353.12 382.346 353.12 372.988 L 353.12 165.423 L 290.616 165.423 C 277.814 165.423 266.649 156.192 266.649 143.934 L 266.649 79.825 L 128.641 79.825 C 128.049 79.825 127.446 79.769 126.875 79.825 Z M 278.54 79.825 L 278.54 143.934 C 278.54 148.97 283.391 153.668 290.616 153.668 L 353.12 153.668 L 278.54 79.825 Z M 216.152 182.383 C 219.628 182.383 222.333 183.658 224.322 186.056 C 226.312 188.395 226.927 191.273 226.177 194.782 C 225.496 198.35 223.685 201.412 220.702 203.875 C 217.706 206.273 214.364 207.454 210.765 207.454 C 207.155 207.454 204.428 206.305 202.494 203.965 C 200.628 201.565 200.08 198.534 200.83 194.964 C 201.566 191.273 203.344 188.304 206.205 185.964 C 209.134 183.625 212.475 182.383 216.152 182.383 Z M 217.448 218.936 C 220.12 218.936 221.171 220.33 220.601 222.978 C 220.354 224.147 219.807 225.905 218.935 228.304 C 218.12 230.643 217.605 232.4 217.36 233.631 C 216.543 237.693 215.191 243.815 213.459 252.001 C 211.716 260.12 210.452 266.217 209.647 270.275 C 207.658 279.876 206.428 286.454 205.937 290.022 C 205.312 294.145 206.194 296.934 208.63 298.289 C 210.933 298.842 213.224 299.417 215.594 300.031 C 217.952 300.588 219.002 302.042 218.567 304.441 C 217.874 307.764 212.263 309.401 201.746 309.401 C 190.301 309.401 180.588 309.219 172.687 308.85 C 168.82 308.667 167.199 307.211 167.759 304.441 C 168.261 301.979 169.915 300.464 172.776 299.849 C 177.504 298.804 180.141 298.199 180.578 298.012 C 183.628 296.474 185.584 293.289 186.523 288.551 C 187.205 285.046 188.278 279.8 189.765 272.847 C 191.263 265.893 192.336 260.741 193.017 257.235 C 194.761 248.682 195.811 242.984 196.18 240.149 C 196.739 236.03 194.783 233.482 190.233 232.62 C 185.752 231.76 183.819 230.002 184.389 227.292 C 184.813 225.008 186.445 223.656 189.306 223.251 C 189.272 223.346 191.586 223.436 196.269 223.436 C 198.695 223.436 202.316 222.708 207.044 221.232 C 211.838 219.754 215.336 218.936 217.448 218.936 Z" style="fill: rgb(255, 255, 255);"/>
  <ellipse style="fill-rule: evenodd; paint-order: fill; fill: rgb(255, 255, 255); stroke-width: 10px; stroke: rgb(50, 215, 230);" cx="328.566" cy="336.957" rx="94.868" ry="94.869"/>
  <g id="Capa_1" transform="matrix(0.247639, 0, 0, 0.247639, 234.367695, 257.812504)" style="">
    <g transform="matrix(1, 0, 0, 1, 128.175524, 86.310129)">
      <path d="M256.004,159.996c-17.641,0-32,14.359-32,32v32h64v-32C288.004,174.355,273.645,159.996,256.004,159.996z" style="fill: rgb(50, 215, 230);"/>
      <path d="M461.832,3.145c-11.111-5.328-24.266-3.797-33.893,3.922c-39.982,32.141-111.951,32.125-151.873,0.016 c-11.719-9.438-28.406-9.422-40.125-0.016C195.975,39.207,123.975,39.191,84.068,7.082c-9.611-7.734-22.81-9.266-33.877-3.938 C39.086,8.457,32.008,19.691,32.008,32.004l-0.016,256c0,100.297,80.406,183.555,215.074,222.727 c2.922,0.844,5.922,1.266,8.939,1.266c3.014,0,6.016-0.422,8.938-1.266c134.67-39.172,215.061-122.414,215.061-222.727v-256 C480.004,19.691,472.941,8.457,461.832,3.145z M352.004,319.996c0,17.68-14.326,32-32,32h-128c-17.674,0-32-14.32-32-32v-64 c0-17.672,14.326-32,32-32v-32c0-35.281,28.703-64,64-64c35.297,0,64,28.719,64,64v32c17.674,0,32,14.328,32,32V319.996z" style="stroke-width: 18.508px; fill: rgb(50, 215, 230);"/>
      <path d="M256.004,271.996c-8.836,0-16,7.164-16,16c0,8.844,7.164,16,16,16c8.836,0,16-7.156,16-16 C272.004,279.16,264.84,271.996,256.004,271.996z" style="fill: rgb(50, 215, 230);"/>
    </g>
  </g>
  <title>Readme File Icon</title>
  <desc>This is shape (source) for Clarity vector icon theme for gtk</desc>
  <title>info1</title>
</svg>