<?xml version="1.0" encoding="utf-8"?>
<svg xmlns="http://www.w3.org/2000/svg" viewBox="0 0 500 500">
  <defs>
    <linearGradient gradientUnits="userSpaceOnUse" x1="250.497" y1="2.174" x2="250.497" y2="497.946" id="gradient-0">
      <stop offset="0" style="stop-color: rgb(19.608% 84.314% 90.196%)"/>
      <stop offset="1" style="stop-color: rgb(0% 49.648% 54.425%)"/>
    </linearGradient>
    <linearGradient gradientUnits="userSpaceOnUse" x1="250.497" y1="2.174" x2="250.497" y2="497.946" id="gradient-1" spreadMethod="pad" gradientTransform="matrix(0.712837, -0.701337, 0.770763, 0.78342, -100.276573, 244.052065)">
      <stop offset="0" style="stop-color: rgb(30, 105, 145);"/>
      <stop offset="1" style="stop-color: rgb(0% 25.701% 39.733%)"/>
    </linearGradient>
  </defs>
  <ellipse style="stroke-width: 0px; stroke: url(&quot;#gradient-0&quot;); paint-order: fill; fill: url(&quot;#gradient-1&quot;);" cx="250.497" cy="250.06" rx="247.883" ry="247.886"/>
  <path d="M 129.856 80.851 C 122.023 81.635 116.027 88.228 116.027 96.193 L 116.027 347.004 C 116.027 355.5 122.865 362.346 131.46 362.346 L 319.825 362.346 C 328.417 362.346 335.256 355.5 335.256 347.004 L 335.256 158.563 L 278.511 158.563 C 266.888 158.563 256.752 150.182 256.752 139.054 L 256.752 80.851 L 131.46 80.851 C 130.922 80.851 130.375 80.8 129.856 80.851 Z M 267.547 80.851 L 267.547 139.054 C 267.547 143.626 271.951 147.891 278.511 147.891 L 335.256 147.891 L 267.547 80.851 Z M 193.808 135.96 C 196.963 135.96 199.418 137.117 201.224 139.295 C 203.031 141.418 203.59 144.031 202.909 147.217 C 202.29 150.456 200.647 153.235 197.938 155.472 C 195.218 157.649 192.184 158.721 188.917 158.721 C 185.639 158.721 183.164 157.677 181.408 155.553 C 179.713 153.375 179.216 150.623 179.897 147.381 C 180.565 144.031 182.18 141.335 184.777 139.211 C 187.436 137.087 190.469 135.96 193.808 135.96 Z M 194.984 169.145 C 197.41 169.145 198.364 170.41 197.846 172.815 C 197.622 173.876 197.126 175.472 196.334 177.65 C 195.594 179.774 195.126 181.369 194.904 182.486 C 194.162 186.174 192.935 191.732 191.362 199.163 C 189.78 206.534 188.633 212.07 187.901 215.754 C 186.095 224.471 184.979 230.442 184.534 233.682 C 183.966 237.425 184.766 239.957 186.978 241.187 C 189.069 241.689 191.149 242.211 193.3 242.769 C 195.442 243.274 196.394 244.595 196 246.772 C 195.37 249.789 190.276 251.275 180.729 251.275 C 170.338 251.275 161.52 251.11 154.347 250.775 C 150.836 250.609 149.364 249.287 149.873 246.772 C 150.329 244.537 151.831 243.162 154.428 242.603 C 158.72 241.654 161.114 241.105 161.511 240.935 C 164.279 239.54 166.056 236.648 166.908 232.346 C 167.528 229.165 168.501 224.401 169.851 218.089 C 171.212 211.776 172.185 207.099 172.804 203.915 C 174.388 196.151 175.34 190.977 175.676 188.404 C 176.183 184.664 174.408 182.351 170.276 181.568 C 166.208 180.787 164.453 179.191 164.971 176.731 C 165.356 174.658 166.837 173.431 169.435 173.063 C 169.404 173.148 171.504 173.23 175.757 173.23 C 177.959 173.23 181.246 172.57 185.539 171.229 C 189.891 169.888 193.067 169.145 194.984 169.145 Z" style="fill: rgb(255, 255, 255);"/>
  <ellipse style="fill-rule: evenodd; paint-order: fill; fill: rgb(255, 255, 255); stroke-width: 10px; transform-origin: 328.566px 336.957px; stroke: rgb(30, 105, 145);" cx="328.566" cy="336.957" rx="116.179" ry="116.18" transform="matrix(0.999984, -0.005572, 0.005572, 0.999984, -10.665551, -10.547588)"/>
  <g id="Capa_1" transform="matrix(0.30909, 0, 0, 0.30909, 200.210727, 230.744205)" style="">
    <g transform="matrix(1, 0, 0, 1, 128.175524, 86.310129)">
      <path d="M256.004,159.996c-17.641,0-32,14.359-32,32v32h64v-32C288.004,174.355,273.645,159.996,256.004,159.996z" style="fill: rgb(30, 105, 145);"/>
      <path d="M 461.832 3.145 C 450.721 -2.183 437.566 -0.652 427.939 7.067 C 387.957 39.208 315.988 39.192 276.066 7.083 C 264.347 -2.355 247.66 -2.339 235.941 7.067 C 195.975 39.207 123.975 39.191 84.068 7.082 C 74.457 -0.652 61.258 -2.184 50.191 3.144 C 39.086 8.457 32.008 19.691 32.008 32.004 L 31.992 288.004 C 31.992 388.301 112.398 471.559 247.066 510.731 C 249.988 511.575 252.988 511.997 256.005 511.997 C 259.019 511.997 262.021 511.575 264.943 510.731 C 399.613 471.559 480.004 388.317 480.004 288.004 L 480.004 32.004 C 480.004 19.691 472.941 8.457 461.832 3.145 Z M 352.004 319.996 C 352.004 337.676 337.678 351.996 320.004 351.996 L 192.004 351.996 C 174.33 351.996 160.004 337.676 160.004 319.996 L 160.004 255.996 C 160.004 238.324 174.33 223.996 192.004 223.996 L 192.004 191.996 C 192.004 156.715 220.707 127.996 256.004 127.996 C 291.301 127.996 320.004 156.715 320.004 191.996 L 320.004 223.996 C 337.678 223.996 352.004 238.324 352.004 255.996 L 352.004 319.996 Z" style="stroke-width: 18.508px; transform-origin: 252.21px 233.286px; fill: rgb(30, 105, 145);" transform="matrix(0.999984, -0.005572, 0.005572, 0.999984, 0, 0)"/>
      <path d="M256.004,271.996c-8.836,0-16,7.164-16,16c0,8.844,7.164,16,16,16c8.836,0,16-7.156,16-16 C272.004,279.16,264.84,271.996,256.004,271.996z" style="fill: rgb(30, 105, 145);"/>
    </g>
  </g>
  <title>Readme File Icon</title>
  <desc>This is shape (source) for Clarity vector icon theme for gtk</desc>
  <title>info1</title>
</svg>