<?xml version="1.0" encoding="utf-8"?>
<svg xmlns="http://www.w3.org/2000/svg" viewBox="0 0 250 250" fill="currentColor">
  <path id="compass_safari" data-name="compass safari" d="M 23.483 19.328 C 23.355 19.328 23.224 19.337 23.095 19.35 C 23.095 19.35 22.815 19.384 22.715 19.404 L 22.651 19.416 C 22.512 19.447 22.402 19.475 22.292 19.507 C 22.255 19.52 22.208 19.534 22.161 19.552 L 22.106 19.572 L 22.065 19.587 L 21.994 19.613 C 21.918 19.644 21.842 19.674 21.768 19.713 C 21.59 19.796 21.417 19.891 21.252 19.997 C 20.255 20.641 19.581 21.681 19.401 22.854 C 19.378 23.079 19.355 23.261 19.35 23.431 L 19.35 23.46 L 19.35 23.507 C 19.369 25.785 21.22 27.623 23.498 27.625 C 23.626 27.625 23.753 27.618 23.88 27.605 C 23.926 27.605 23.968 27.595 24.009 27.59 C 24.087 27.58 24.165 27.568 24.241 27.554 C 24.317 27.54 24.364 27.53 24.421 27.515 L 24.504 27.496 L 24.569 27.479 C 25.059 27.343 25.52 27.119 25.93 26.818 C 26.789 26.202 27.376 25.278 27.568 24.239 C 27.613 23.991 27.638 23.739 27.641 23.486 C 27.643 21.194 25.786 19.335 23.494 19.334 L 23.483 19.328 Z M 35.871 6.11 L 29.834 24.701 C 29.527 26.312 28.616 27.745 27.287 28.706 L 12.993 42.05 L 12.466 42.542 L 11.791 42.33 L 11.247 41.997 L 10.867 41.527 L 11.092 40.838 L 17.092 22.484 C 17.371 20.683 18.396 19.082 19.916 18.075 L 33.977 4.902 L 34.501 4.402 L 35.125 4.642 L 35.583 4.922 L 36.1 5.421 L 35.871 6.11 Z M 22.018 29.776 C 21.869 29.74 21.748 29.712 21.631 29.676 C 21.553 29.653 21.473 29.625 21.393 29.597 C 21.273 29.555 21.162 29.517 21.057 29.475 C 20.971 29.438 20.89 29.403 20.809 29.364 C 20.709 29.319 20.604 29.271 20.503 29.216 C 20.426 29.177 20.348 29.135 20.27 29.09 C 20.17 29.033 20.07 28.975 19.976 28.91 C 19.905 28.864 19.832 28.817 19.764 28.768 C 19.676 28.705 19.588 28.638 19.498 28.568 L 19.491 28.568 L 19.45 28.534 C 19.395 28.49 19.34 28.447 19.287 28.4 C 19.207 28.334 19.121 28.253 19.033 28.168 L 18.993 28.132 C 18.947 28.088 18.901 28.044 18.856 27.997 C 18.768 27.907 18.689 27.817 18.608 27.728 L 18.574 27.688 C 18.533 27.641 18.492 27.595 18.454 27.548 C 18.382 27.46 18.309 27.361 18.235 27.259 L 18.211 27.222 C 18.157 27.154 18.131 27.122 18.111 27.08 L 18.068 27.016 L 14.716 37.267 L 22.622 29.887 C 22.466 29.868 22.346 29.849 22.23 29.827 C 22.164 29.809 22.093 29.794 22.021 29.776 L 22.018 29.776 Z" style="stroke-width: 1;"/>
</svg>