<?xml version="1.0" encoding="utf-8"?>
<svg version="1.1" id="Layer_1" xmlns="http://www.w3.org/2000/svg" xmlns:xlink="http://www.w3.org/1999/xlink" x="0px" y="0px"
	 viewBox="0 0 225 300" style="enable-background:new 0 0 225 300;" xml:space="preserve">
<style type="text/css">
	.st0{display:none;fill:currentColor;}
	.st1{display:none;}
	.st2{display:inline;fill:currentColor;}
	.st3{fill:currentColor;}
</style>
<path class="st0" d="M110.8,157.7c5.8,6.6,10.6,12.8,13.1,20.8c1.4,4.6,4.9,8.9,8.1,12.7c6.9,8.3,13.7,16.6,19.2,25.9
	c0.5,0.9,1.3,1.9,2.2,2.5c7.7,5.4,12.7,13.3,18.9,20.2c4,4.5,5.8,9,2.7,14.8c-1.3,2.5-0.3,4.4,1.5,6.5c3.3,3.7,3.1,3.8,3.5,8.9
	c-2.8-0.3-5.6-0.2-8.2-1c-12.4-3.8-21.6-12-29.9-21.8c-9.4-11.1-17.8-22.9-26.6-34.5c-7.9-10.5-17.3-19.9-26.1-29.7
	c-0.4-0.4-1.1-0.6-1.8-1c-3,2.7-4.5,5.6-2.9,9.8c0.7,1.7,0.2,3.9,0.5,5.9c0.4,3.5,1,6.9,1.5,10.3c0.3,1.7,0.8,3.5,0.7,5.2
	c-0.5,6.3,0.4,12.6-0.9,18.9c-1.4,6.8-0.2,13.6,1.3,20.3c0.2,0.9,0.9,1.7,0.8,2.5c-0.3,2.3-0.2,5-1.4,6.7c-1.7,2.2-4.5,1-6.7,0.1
	c-3.5-1.4-7-2.7-10.3-4.5c-5.8-3-9.6-7.9-10.9-14.2c-2.9-13.1-4.2-26.4-3.5-39.9c0.3-6.1-0.7-12.3-1.1-18.4
	c-0.6-9.8-1.5-19.5-1.9-29.3c-0.4-10.7-0.8-21.5-0.3-32.2c0.5-11.6-0.1-23.1-1.4-34.6c-0.2-1.7-0.3-3.6,0.2-5.2
	c2.5-8.9-0.2-17.5-1.2-26.2c-0.2-1.9-2.5-3.4-3.3-5.3c-3.1-7.4-0.9-12.6,6.7-16.2c2.9-1.4,6.1-2.5,8.7-4.3c3.3-2.2,6.4-1.8,9.1,0.4
	c2.7,2.2,5.6,4.5,7.3,7.4c8.4,14,20.6,24.6,31.5,36.3c6.5,7,13.9,13.2,19.7,20.8c2.2,3,5,5.6,7.7,8c5.3,4.6,7.8,11.5,13.4,15.9
	c1.9,1.5,1.7,4.9-0.4,7.2c-0.6,0.7-1.2,1.4-1.9,1.9c-10.6,7.1-19.5,16.4-30.7,22.7C115.2,153.6,113.1,155.8,110.8,157.7z M72.3,57.2
	c-0.5,0.3-1,0.6-1.5,0.9c0,1.9-0.3,4,0.1,5.8c2.9,11.1,2.8,22.4,2.8,33.8c0,2.3,0.4,4.8,1.4,6.9c2.1,4.8,3,9.5,2.7,14.8
	c-0.2,3.2,0.5,6.5,1.3,9.7c0.7,3.1,1.9,5.8,0.9,9.5c-0.8,3.1,0.9,6.9,1.5,11c4.5-5.1,8.2-9.7,12.5-13.8c4.3-4.1,9-7.8,13.8-11.2
	c4.7-3.3,9.9-6.1,15.5-9.5C105.9,95.3,89.1,76.3,72.3,57.2z"/>
<path class="st0" d="M92.8,167.9c1.7-1.7,3.4-3.1,4.7-4.6c6.5-7.5,11.5-16.1,16.4-24.7c8.2-14.3,16.7-28.5,25.4-42.6
	c3.9-6.4,11.4-12.3,17.7-15.2c8,2.6,8.1,10.3,10.4,16.5c0.5,1.3-1.4,3.9-2.8,5.4c-1.6,1.7-3.7,3-5.8,3.9c-7.4,3.4-10.5,10-13.4,16.9
	c-1,2.4-3.1,4.3-4,6.7c-4.8,12-13.3,22.1-17.6,34.4c-0.9,2.4-3.5,4.2-5.1,6.5c-4.9,7-9.7,14.1-14.5,21.1
	c-3.5,5.2-7.1,10.3-10.5,15.6c-1.6,2.4-1.9,4.9-1.8,8.1c0.5,10.6,2.9,21.3,0.6,32c-0.1,0.4-0.4,0.9-0.3,1.3
	c2.1,6.3-1.2,11.5-3.4,17.6c-2.4,0.4-5.2,1.2-7.9,1.3c-8.6,0.6-13.9-3.3-15.6-11.8c-0.9-4.9-1.1-10-1.6-15.1
	c-0.5-5.6-1.2-11.3-1.5-16.9c-0.3-4.3-0.2-8.6-0.3-13c-0.2-7.4,0.3-14.9-0.7-22.1c-1.2-8.5-1.3-17-0.9-25.5
	c0.2-4.8-0.8-9.5,0.7-14.3c0.6-2,0.2-4.4-0.2-6.6c-0.9-4.6-1.7-9.1,1-13.5c0.6-0.9,0.3-2.5,0-3.8c-1.6-8.9-1.9-17.9-1.8-27
	c0.1-8.7,1-17.3-1-26.1c-1.3-5.6-0.4-11.8-0.1-17.7c0.2-4.6,1.1-9.1-0.9-13.7c-0.5-1.1,0.7-3.2,1.5-4.6c0.8-1.4,2.2-2.6,3.8-4.4
	c4.8,1.2,10.1,2.2,15.3,3.9c10,3.3,12.5,9.7,11.5,17.4c-0.3,2.5,0.3,5.2,0.4,7.8c0.1,3.5,0.4,6.9,0.2,10.4c-0.4,9-0.9,18,1,28.4
	c2.3-3.2,4.1-5.3,5.4-7.7c6.3-12.1,13-23.9,21.1-34.9c4.3-5.8,7.8-12.1,11.3-18.3c1.5-2.7,3-3.5,6.3-2.9c8.9,1.7,14.9,8.9,13.5,17.5
	c-0.3,2.1-1.7,4-2.8,5.8c-2.1,3.3-4.5,6.5-6.8,9.7c-1.8,2.5-3.8,4.8-5.4,7.4c-1.6,2.5-2.8,5.3-4.2,8c-1.2,2.3-2.3,4.7-3.3,7.1
	c-0.8,1.8-1.4,3.7-2.2,5.4c-1.2,2.6-2.4,5.1-3.7,7.6c-0.5,1-1.4,1.8-1.6,2.8c-1.2,5.6-4.9,9.5-8,14c-4.7,6.7-8.3,14.2-12.6,21.3
	c-3.1,5.1-6.1,10-7.3,16C90.3,162,90.2,164.7,92.8,167.9z"/>
<path class="st0" d="M61.3,35.4c5.1-1.1,8.6-5,14.1-5.2c12.3-0.5,10.9,0.2,18,11c4.4,6.7,6.9,14.7,11.1,21.7
	c3.7,6.1,8.6,11.5,13,17.2c6.2,8,12.5,15.9,18.6,23.9c2.8,3.7,5,7.8,8,11.3c1.9,2.2,4.5,4.3,7.2,5.4c6.7,3,11.3,9.7,11,17
	c0,0.7,0,1.4-0.3,2c-4.1,8.4-1.4,17.2-1.5,25.8c-0.1,3.1,0.1,6.1-0.2,9.2c-0.8,9.5-1.1,18.9,1.2,28.2c0.4,1.8,0.2,4-0.3,5.8
	c-1.1,3.7-1,7.3-0.3,11c1.2,6.4,2.3,12.9,3,19.5c0.3,3-0.5,6.1-0.9,9.1c-0.6,4.6-1.3,9.2-1.7,13.7c-0.5,5-1.5,6.5-5.1,7.4
	c-4.6,1.2-9-0.2-11.2-3.5c-3.9-6.1-6.1-12.9-6.5-19.9c-0.9-19.1-1.6-38.2-1.6-57.3c-0.1-14.9,0.8-29.8,1.5-44.7
	c0.4-8.5-3.5-15.6-9.4-20.2c-8.5-6.7-13.5-15.4-19.4-23.9c-7-10.3-14.4-20.3-22.2-30.2c-1,10.6-1.6,21,0.7,31.3
	c0.3,1.5,0.6,3,0.7,4.6c0.2,12.1,0.2,24.2,0.6,36.2c0.4,12.4,1.3,24.9,1.9,37.3c0.1,2.5-0.4,5.1-0.6,7.7c-0.1,1.7-0.5,3.5-0.1,5.2
	c1.6,6.6,2.4,13.2,1.7,20.2c-0.4,4.1,0.2,8.4,1.1,12.4c1.5,6.4,0.6,12.7,0.5,19c0,3.5,0.3,6.9,0.8,10.4c0.4,2.9,0.9,5.7-2.2,7.5
	c-4.3-1.7-8.9-2.9-12.8-5.2c-6-3.7-10.5-9.1-11.5-16.2c-1.3-9.1-1.9-18.3-2.2-27.4c-0.3-13.2-0.2-26.4,0.1-39.6
	c0.4-16.1-1.2-32-1.3-48.1c-0.1-9.7,0.1-19.3-0.2-29c-0.2-7-1.2-14-1.4-21c-0.3-9.9,0-19.8-0.3-29.7C62.8,42.2,61.9,39.3,61.3,35.4z
	"/>
<path class="st0" d="M64.7,36.9c4.6-1.4,8.4-2.9,12.4-3.6c5.8-1,9.7,1.5,10.5,7.3c0.5,4.1,2.4,6.2,5.6,8.2
	c10.2,6.5,17.3,15.9,24.8,25.2c12.2,15,24.9,29.5,37.3,44.4c3,3.6,4.7,7.9,4.9,12.6c0.2,4.8-5.8,9.1-10,6.8
	c-5.2-2.9-10.3-6-14.7-9.9c-17.4-15.5-31.5-33.7-43.9-53.4c-0.6-0.9-1.4-1.6-2.9-3.4c-0.6,3.5-1.2,5.9-1.5,8.4
	c-1.7,13.7,1.6,27,3.4,40.4c0.2,1.3,1.5,3.1,2.6,3.4c7.5,2.1,11.6,8.4,16.9,13.1c10.7,9.5,20.9,19.6,31.6,29.1
	c4.7,4.2,6.8,8.5,3.5,15.1c-3.2,2.3-6.8,1.9-10.9-0.6c-11.2-6.8-21.4-14.7-30-24.6c-3-3.4-6.5-6.3-10.2-9.9
	c0.1,9.1,0.1,17.3,0.3,25.5c0.1,6.8,0.4,13.6,0.5,20.4c0,3-0.4,6-0.3,9.1c0.1,7.2,0.4,14.4,0.6,21.7c0.2,4.3,0.5,8.7,0.7,13
	c0,0.7,0.3,1.4,0.1,2c-2.1,8.2-0.2,16.4-0.3,24.6c0,4.6-4.1,6.6-8.2,4.4C79,261.4,74,254.1,72,244.9c-2-9-3.5-18.1-2.6-27.4
	c0.2-2.3-0.1-4.9-0.8-7.1c-1.6-5.6-1.4-11.2-0.1-16.8c0.1-0.6,0.3-1.3,0.3-1.9c-0.8-8.7-1.8-17.4-2.3-26.1
	c-0.3-5.4,0.2-10.9,0.3-16.4c0.1-7.2,0.1-14.4,0.3-21.7c0.1-3.9,0.4-7.9,0.8-11.8c0.9-10.5-0.1-20.9-0.7-31.4
	c-0.4-5.9,0.1-11.8,0.2-17.7c0-3.3-0.1-6.6-0.2-9.9c-0.1-4.4-0.2-8.7-0.6-13.1C66.2,41.6,65.4,39.6,64.7,36.9z"/>
<path class="st0" d="M75.9,35.5c3.4,0,6.7,0.2,10.1-0.2c5.4-0.5,8.7,4.2,6.3,9.9c-1.9,4.5-1.5,8.9-1.5,13.5
	c-0.1,7,4.2,11.4,8.3,15.7c6.1,6.4,12.9,11.7,20.7,16.1c5.1,2.8,9.5,7,14,10.9c6.2,5.3,12.1,10.9,18.2,16.3c1.5,1.3,3.2,2.3,5.2,3.7
	c1,3.8,0.2,7.3-3.5,10c-5.9,4.3-11.9,8.4-15,15.4c-0.2,0.4-0.5,0.7-0.9,0.9c-7.1,4-11.2,11.1-16.8,16.5c-4.2,4.1-7.2,9.3-10.7,14.1
	c-0.9,1.2-1.7,2.5-2.6,3.7c-2.2,2.8-3.6,5.5-2.8,9.5c0.8,4,0.3,8.3-0.2,12.5c-0.6,5.7-0.7,11.3,1.2,16.9c0.8,2.1,0.5,4.7,0.6,7
	c0.4,8.5,0.8,17,1,25.5c0.1,2-0.2,4-0.7,5.9c-1.8,5.9-7.2,7.6-12.5,4.4c-9.7-5.8-12.9-15-13.9-25.5c-0.4-4.6-1.3-9.1-1.7-13.7
	c-0.8-9.2-1.9-18.4-2-27.6c-0.3-22.8,0.1-45.7-0.4-68.5c-0.2-11-1.9-21.9-2.8-32.8c-0.6-7.2-0.7-14.5-1.6-21.7
	c-1.1-9.1-2.7-18.2-4.2-27.3c-0.8-5.1-0.4-6.3,4.1-9.1c1.2-0.8,2.3-1.8,3.5-2.8C75.5,35,75.7,35.3,75.9,35.5z M97.6,92.7
	c-0.4,0.2-0.8,0.4-1.2,0.6c1.1,10.2,2.3,20.4,3.3,30.5c1,10,1.3,20.1,2.6,31c9.8-11.4,18.7-21.9,28-32.9
	C119.1,111.8,108.4,102.2,97.6,92.7z"/>
<path class="st0" d="M57.7,140.9c1.2-4.5,2.1-7.7,3-11c5.1,0.5,7.6-4.1,10.3-7.3c10.5-12.6,20.6-25.6,30.5-38.7c3-4,5-8.8,7.4-13.2
	c6.3-11.4,13.8-21.9,23.1-31c2.5-2.4,4.6-5.2,6.9-7.8c3.2,1.1,6.3,2,9.3,3.2c4.4,1.7,6.5,5.7,8.7,9.5c2,3.4,3.5,7,5.1,10.6
	c1.4,3.2-1.8,9.1-6.2,10.3c-6.9,1.8-10.5,6.8-14.1,12.2c-3.1,4.7-6.4,9.4-9.5,14.2c-7.4,11.4-14.7,22.9-22.1,34.3
	c-1.5,2.4-3.3,4.6-5.1,6.7c-4.4,5.3-9,10.5-13.8,16.1c3.1,3.8,5.8,7,8.4,10.3c2.2,2.7,4.2,5.6,6.3,8.3c7.2,9.4,14.2,19,21.7,28.3
	c13.5,16.7,25.6,34.4,34.8,53.9c2.1,4.4,3.4,9.3,4.6,14.1c0.3,1.3-0.6,3.8-1.7,4.3c-1.2,0.6-3.4-0.1-4.8-0.8
	c-1.5-0.7-2.7-2.2-4.2-3.2c-4.1-3-8.1-5.9-12.3-8.7c-8.5-5.6-14.8-13.4-19.9-21.9c-7.8-13-16.7-25.3-26.1-37.2
	c-6.8-8.7-13-17.7-19.7-26.5c-4.2-5.6-9-10.8-13.2-16.5C62.3,148.9,59.8,144.2,57.7,140.9z"/>
<path class="st0" d="M140.6,33.7c5.2,0.7,10.4,1.1,15.5,2.1c4.9,0.9,8.7,11.5,4.9,14.7c-7.5,6.5-9.1,15.5-11,24.1
	c-1.7,7.6-3.5,15.1-7.2,21.8c-7.5,13.3-9.6,28.2-13,42.7c-0.3,1.2-0.1,2.7,0.4,3.8c4.2,10.4,8,21,13.1,31
	c5.2,10.1,8.6,20.7,11.2,31.6c1.7,7.1,4.6,13.7,6.7,20.5c2.9,9.1,4.2,18.7,6.1,28.1c0.2,0.8-0.1,1.7-0.3,3.3
	c-8.5-2.4-16.3-5.4-21.9-11.8c-4.3-4.9-7.9-10.6-10.7-16.5c-2.8-5.7-4.2-12-6.1-18.2c-2.5-8.4-4.8-16.9-7.3-25.8
	c-3.9,1.3-4.8,4.3-6,7c-2.3,5.5-4.6,11-6.7,16.5c-1.4,3.7-3.3,7.4-3.7,11.2c-1.3,11.9-5.3,23.1-8.4,34.5c-0.8,2.7-2.1,5.3-3.2,7.9
	c-2.2,4.8-7.1,5.8-10.4,1.6c-4.6-5.9-9.3-11.9-10.5-19.6c-0.4-2.3-0.2-4.9,0.4-7.2c2.4-8.9,4.6-17.9,7.7-26.6
	c3.9-11,8.9-21.5,12.6-32.5c3.9-11.4,9.7-22.3,11.1-34.4c0.3-2.9-0.2-6.2-1.3-8.9c-4.3-10.6-8.7-21.1-13.5-31.5
	C86,96.5,82,90.1,78.7,83.3c-5.2-10.7-10.1-21.5-15-32.3c-1.6-3.6-2.9-7.4-4.7-10.8c-1.2-2.3-2.3-4.3,0.2-6.7c3,0,6.3-0.2,9.6,0
	c1.4,0.1,3.2,0.6,4.1,1.6c3.1,3.4,6.4,6.8,8.6,10.8c6.9,12.7,13.4,25.7,20,38.6c3,5.9,5.8,11.8,8.8,17.7c0.8,1.5,2,2.7,3.7,4.9
	c1-3.2,1.5-5.4,2.5-7.5c1.8-4,3.7-8,5.6-11.9c0.9-1.9,1.9-3.9,2.8-5.8c1.7-3.5,3.5-7,5.1-10.6c0.9-2,1.7-4.1,1.8-6.2
	c0.8-9.8,4.9-18.6,7.2-27.9C139.1,36.2,139.7,35.5,140.6,33.7z"/>
<path class="st0" d="M83.6,258.3c-9.9,1.3-18.2-4.6-21.1-14.5c-2.4-8.4-3.6-16.9-4-25.6c-0.5-13.7-1.2-27.4-1.5-41.1
	c-0.1-4.8,0.8-9.6,1-14.3c0.4-14.1,0.5-28.2,1-42.3c0.2-5.7,0.8-11.4,1.4-17c0.7-7.2,1.8-14.5,2.3-21.7c0.6-7.7,1-15.4,1.1-23.1
	c0.1-7.4,4.9-11.8,9.8-16c2-1.7,4.5-1.3,6.8,0.8c5,4.7,10.3,9,15.2,13.7c8.4,8,16.5,16.3,24.8,24.4c2.8,2.7,5.7,5.3,8.8,7.6
	c7.7,5.6,13.8,12.5,19.9,19.7c5,5.9,10.2,11.6,15.5,17.3c3.5,3.7,4.9,16.6,1.6,20.5c-0.9,1.1-2.7,2.1-4,2.1
	c-11.5-0.2-20,6.8-29.2,12.2c-7.2,4.2-14.4,8.4-21.7,12.5c-1.2,0.7-2.4,1.3-3.6,2c-6.4,4.3-12.3,9.4-19.2,12.6
	c-5.8,2.7-6.4,7.6-7.4,12.1c-1.9,8.2-2.2,16.7-1,25.2C81.6,236.2,82.4,247.1,83.6,258.3z M82.9,169.9c12.6-8.9,23.9-17.1,35.5-25
	c5.6-3.8,11.7-6.9,17.6-10.4c1.8-1.1,3.4-2.5,5.2-3.8c-1.2-1.9-2-3.1-2.8-4.1c-5.8-7.6-14.2-12.4-21.1-18.8
	c-6.3-5.9-12.9-11.6-17.8-18.9c-2.5-3.8-5.9-6.6-10.8-9.2C86.7,109.9,84.8,139.4,82.9,169.9z"/>
<path class="st0" d="M89.3,53.1C87,58.2,84.9,63,86,69.2c1.2,6.1,0.1,12.6,0.2,19c0,4.2,0.4,8.4,0.5,12.6c0.1,3.2,0,6.5-0.1,9.7
	c-0.1,2.3,0,4.3,2.6,5.5c1.6,0.7,2.7,2.4,4.2,3.1c3.9,1.8,7.1,4.2,8.8,8.3c0.5,1.1,1.5,2.2,2.5,2.9c6.9,5.1,13.9,10.1,20.9,15.1
	c0.8,0.6,1.9,0.9,3.3,1.5c-0.1-4.9-0.1-9.2-0.1-13.5c0-4.1,0.1-8.3,0.1-12.4c0-1.1-0.1-2.2,0.2-3.2c1.2-4.3,0.6-8.3-0.1-12.7
	c-1.1-7.1-0.5-14.4-0.4-21.7c0-4.1,1.5-7.9,2.4-11.8c1.3-6.2,0.7-12.9,0.9-19.3c0.2-5,0.4-9.9,0.5-14.8c6.1-2.2,11,0.2,15.9,1.6
	c4.6,1.3,9,3.5,13.5,5.4c5.3,2.3,5.2,3,3.9,8.4c-1.6,6.6-2.3,13.4-3,20.1c-0.6,6.1-0.9,12.2-1.1,18.3c-0.3,7.7-0.7,15.4-0.8,23.1
	c-0.2,12,1,23.9,1.2,35.8c0.4,17.3,0.3,34.6-0.1,51.9c-0.2,7.5-0.9,14.8,0,22.3c0.5,3.8-0.6,7.8-0.9,11.8
	c-0.4,5.9-0.7,11.7-1.1,17.6c-0.2,2.6-0.3,5.2-3.6,6.4c-3.2,1.2-5.3,0.7-7.7-1.7c-1.6-1.7-3.9-2.8-6-3.9c-4.2-2.1-7.2-5.2-8.5-9.6
	c-2.4-8.2-5.3-16.4-6.5-24.8c-1.7-12.2-1.8-24.6,0.1-36.9c0.4-2.3,0-4.7,0-7.3c-16.5-5.8-27.1-19.5-41.2-30c-0.7,2.8-1.5,5-1.7,7.3
	c-0.6,7-1.2,14.1-1.2,21.1c0,7.6,0.8,15.2,1,22.8c0.2,6.1-0.7,12.3,0,18.3c0.6,5.6-0.7,10.8-0.8,16.3c-0.2,7.9-0.3,15.7-0.7,23.6
	c-0.1,2.3-1,4.7-2,6.8c-1.9,4-4.7,4.5-8.6,2.1c-0.2-0.1-0.3-0.3-0.5-0.4c-13.3-4.3-12.8-16-13.2-26.5c-0.4-8.9,1.2-17.9,1.7-26.8
	c0.4-7.4,0.4-14.9,0.5-22.4c0.1-7.5-0.1-14.9,0.1-22.4c0.3-11.4,0.9-22.8,1.4-34.2c0.1-1.5,0-3.2,0.7-4.5c2.7-5.5,0.3-11.1,0.2-16.6
	c0-1.8-1.7-3.3,0.9-4.6c0.4-0.2,0.4-1.2,0.4-1.8c0-8.3-0.2-16.6,0-25c0.2-10.3,0.6-20.6,1-30.9c0.2-4.4,0.5-8.7,0.8-13.7
	C76.6,37.4,87.2,39.3,89.3,53.1z"/>
<path class="st0" d="M116.5,121.1c0.8-31,2.7-62,0.4-93.2c6.2-3.1,12.7-0.3,18.9-1.2c0.2,0,0.5,0.1,0.7,0.2
	c3.1,3.7,6.8,7.1,9.1,11.2c1.4,2.5,1.1,5.9-0.4,9.2c-2.6,5.5-3,11.4-1.6,17.4c3.5,15.6,3.5,31.4,3.3,47.3
	c-0.1,12.1-0.4,24.3,0.1,36.4c0.3,7,5.5,12,9.8,16.9c5.1,6,11.9,10.6,16.7,16.8c4.8,6.1,8.8,13.1,7.1,21.9
	c-6.1,2.4-10.6-0.1-15.1-3.6c-5.4-4.2-10.9-8.2-17.4-13.1c-0.4,3-0.6,4.6-0.8,6.2c-0.6,6.8,0.1,13.6-2,20.5
	c-1.6,5.4,0.2,11.7,0.1,17.7c0,5.9-0.4,11.8-0.6,17.7c-0.1,2.2-0.3,4.5,0.3,6.6c1.7,5.8,0.2,11.2-1.6,16.4
	c-4.4,2.8-7.5-0.2-10.1-2.4c-9.2-7.8-15.6-17.8-16.2-29.8c-0.4-8.3-2.1-17.1,1.6-25.3c0.5-1.2-0.2-2.8-0.2-4.2
	c0-9.4,0.2-18.7,0.1-28.1c-0.1-7.3-0.9-14.7-1-22c0-3.7-1.9-6.2-4.4-8.1c-14.8-11.1-26.4-25.3-38.9-38.6c-3.2-3.4-5.9-7.2-9.1-10.6
	c-5-5.3-9.8-11-15.5-15.4c-5.2-3.9-7.4-8-5.4-14.3c0.3-0.2,0.9-0.8,1.2-0.7c8.6,2.9,18.3,0.7,26.6,5.1c1.6,0.9,3.8,0.8,5.7,0.9
	c5.1,0.3,8.6,2.3,10.6,7.6c1.5,4,4.8,7.3,7.4,10.8c6.1,8.2,12.2,16.4,18.3,24.5C115.1,121.7,115.8,121.4,116.5,121.1z"/>
<path class="st0" d="M99.4,35.2c7.5-2.2,14-1.2,20.2,2.3c0.9,0.5,2.3,1.4,2.3,2.1c0,4.2,2.8,8.5-0.3,12.7c-1.9,2.6-1.8,5.5-1.4,8.7
	c1,8.7,1.3,17.5,1.8,26.3c0,0.4-0.1,0.9,0,1.3c3.3,8.3,1.4,16.7,0.7,25.2c-0.6,7,0.8,14.2,1.2,21.4c0.4,5.9,0.7,11.9,1,17.8
	c0.4,9.9,0.7,19.8,1.1,29.7c0.5,12.3,0.3,24.4-0.8,36.7c-0.8,8.9-0.2,18-0.3,27c-0.1,4.8,0,9.7-0.7,14.5c-0.7,5-3.5,6.1-8.1,4.1
	c-7.7-3.3-11.3-9.2-13.2-17.3c-3.3-14.6-2.4-29.2-1.4-43.9c0.3-4.1-0.4-8.3-0.5-12.4c-0.1-9.4,0.8-18.9-0.5-28.2
	c-1.3-9.4-0.7-18.8-1.7-28.1c-0.3-2.8,0-5.7,0-8.5c0.2-10.8,0.5-21.6,0.5-32.4c0.1-14.7,0-29.4-0.1-44.1
	C99.4,45.1,99.4,40.2,99.4,35.2z"/>
<g class="st1">
	<path class="st2" d="M88,35c2.4-3.9,5.3-4.6,9.1-2.8c4.1,2,8.4,3.1,12.4,5.8c6.9,4.7,8.3,12.2,11.6,18.6c6.5,12.3,14,23.9,22.3,35
		c5.3,7,10.3,14.3,15.3,21.5c5.4,7.7,10.7,15.6,16,23.3c2,3,3.7,6,2,10.6c-2.6-0.4-5.4-0.4-7.9-1.2c-2.9-0.9-5-0.5-6.9,2
		c-5.5,7.2-11.6,14.1-16.8,21.5c-5.2,7.4-9.4,15.3-11.4,24.4c-1.2,5.8-5.5,7.8-11.3,6c-9.3-2.8-16.6-8.5-22.6-15.6
		c0.8-8.5,4.1-15.5,9-22c6.2-8.2,11.8-16.9,17.9-25.1c3.9-5.3,8.9-9.7,15.6-11.6c-7.3-10.5-14.1-20.9-21.5-30.9
		C109.3,78.9,100,62,92.4,44.1C91.1,41.1,89.5,38.2,88,35z"/>
	<path class="st2" d="M87.3,116.2c6.1-0.3,11.9-0.7,17.7,1.4c4.4,1.5,7.1,4.4,8.7,8.4c0.6,1.5,0.1,4-0.8,5.5
		c-2.2,3.8-4.8,7.3-7.4,10.9c-4.1,5.7-8.2,11.3-12.3,17c-0.6,0.8-0.7,2-1.2,2.9c-1.3,2.5-2.5,5.1-3.9,7.5c-2.4,4.2-4.9,8.3-7.4,12.3
		c-1.6,2.6-3.5,5-5.7,8.1c1.3,1.3,2.7,2.9,4.3,4.3c10.2,8.4,20.7,16.5,30.5,25.2c9.7,8.6,18.7,18,28.1,27c1.4,1.4,3,2.6,4.6,3.6
		c5.4,3.4,7.9,9.2,11.3,14.2c0.5,0.8,0.3,2.1,0.6,4.2c-2.8-0.6-5.1-0.8-7.1-1.7c-23-10.2-43.7-23.5-59.6-43.6
		c-4.5-5.7-10.5-10.1-15.7-15.2c-6.7-6.6-13.5-13.3-20-20.2c-1.8-1.9-2.5-4.9-3.7-7.3c-2.7-5.6,1.3-9.9,3.8-13.8
		c8-12.1,16.8-23.6,25.1-35.4C80.8,126.7,83.8,121.7,87.3,116.2z"/>
</g>
<path class="st0" d="M162.1,106.7c-3.8,4.8-6.8,5.6-10.5,2c-3.5-3.3-6.5-7.2-9.3-11.1c-4.5-6.3-8.7-12.9-13.6-20.2
	c-0.4,6.8-1.1,12.8-1.1,18.8c0,10.1,0.1,20.2,0.6,30.3c0.7,16.3,2,32.5,2.7,48.7c0.5,11.6-0.3,23.3,0.6,34.9
	c1,12.8,0.7,25.5-0.1,38.1c-0.4,7.1-1.6,14.9-8.4,20.5c-1.6-1.5-3.2-2.9-4.6-4.5c-14.6-16.6-27.1-34.6-38.8-53.3
	c-5-8-9.5-16.4-14.2-24.6c-0.9-1.5-1.8-3.1-2.2-4.8c-0.3-1.3-0.3-3.4,0.5-4.1c0.8-0.7,3.1-0.7,4.2-0.1c4.4,2.8,9.3,5.4,12.8,9.2
	c7.1,7.7,13.4,16.2,20.2,24.3c0.9,1.1,2.3,1.9,3.7,3.1c2.5-5.4,1.8-10.7,2-15.8c0.1-4.4-0.4-8.7-0.6-13.1c-0.9-20.3-1.8-40.7-2.8-61
	c-0.2-5.3-0.9-10.5-1-15.8c-0.1-6,0.4-12.1,0.6-18.1c0.2-8.5,0.2-16.9,0.4-25.4c0.1-4.2,0.4-8.3,1-12.4c1-6.9,2.2-13.8,3.5-21.2
	c10.4,2,18.2,5.3,23.7,14.5c10.7,18,19.3,37.1,28.3,56C160.3,103.2,161.1,104.7,162.1,106.7z"/>
<path class="st0" d="M71.5,67.9c-0.9,2.7-2.2,4.7-2.2,6.7c0,7.6,0.3,15.3,0.8,22.9c0.4,7.2,1.2,14.5,1.7,21.7
	c1.3,18.2,2.5,36.4,3.6,54.6c0.3,5.9,0,11.8,0.2,17.6c0.1,4.5,0.5,9.1,0.8,13.6c0.4,6.2,0.9,12.5,1.4,19.2c1.3-1,2.7-1.7,3.6-2.8
	c4.9-5.3,9.4-11,14.6-16c10.2-9.7,21.9-16.3,36.7-14.3c2.3,0.3,4.4,1.5,6.6,2.4c1.2,0.5,2.2,1.9,3.3,2c6.1,0.7,7.8,5.6,10.4,9.9
	c5.1,8.4,10.2,16.7,17.1,23.9c5.6,5.8,10.6,12.3,15.5,18.8c1.2,1.6,1.4,4.9,0.5,6.7c-1,2.2-3.9,2.4-6.5,1.7
	c-4.8-1.2-9.3-2.8-12.8-6.5c-3.5-3.7-6.9-7.4-10.4-11.1c-7.5-8-15-16-22.7-24.2c-1.5,1.1-2.8,1.9-4,2.8
	c-13.4,10.2-27.2,19.9-40,30.8c-6.1,5.2-12.9,9.7-17.8,16.4c-2.1,2.9-5.8,2.8-9.2,1.7c-7.5-2.4-13.9-10.1-14.2-18.2
	c-0.3-7.7-0.2-15.4-0.1-23.1c0.2-8.6,1.2-17.1,0.9-25.7c-0.2-7.7-1.4-15.3-2.4-23c-2.6-19.2-4.4-38.5-4.1-58
	c0.1-5.3-1-10.5-1.2-15.8c-0.7-16.3-2.4-32.5-1.5-48.9c0.3-5.1-1.4-10.4-2.3-16.3c0,0,0.9-0.6,1.5-1.4c2.5-3.4,4.7-4,7.9-2.3
	c1.9,1,3.9,1.9,5.8,2.9c3.8,2.1,7.7,4,11.5,6.3C79.3,51.6,92,62.6,105,73c4.7,3.8,8.3,9,12.5,13.5c1.3,1.4,3,2.5,5,4.2
	c2-2.5,3.7-4.7,5.4-6.9c8.9-11,17.7-21.9,26.7-32.8c4.6-5.6,11-8.8,17.7-11.1c6.9-2.3,13.5,4.6,11.5,12.2
	c-1.9,7.1-3.9,14.1-10.2,19.5c-6.6,5.6-11.3,13.2-15.9,20.6c-4.4,7-9.5,13.6-14.3,20.3c-1.8,2.6-4.3,3.8-7.4,2.9
	c-5-1.6-10.3-2.7-14.7-5.2c-10.4-5.9-19.6-13.5-27.6-22.4c-5-5.6-10.7-10.6-16.1-15.7C75.9,70.7,74,69.7,71.5,67.9z"/>
<path class="st0" d="M44.6,56.6c8.1,3.2,12.6,10,18,15.7c4.3,4.6,8,9.9,12.2,14.7c4.5,5.1,9.3,10,14,15c1,1.1,2.3,1.9,3.9,3.2
	c0.6-1.4,1.3-2.3,1.3-3.2c0.4-14.7,0.7-29.4,1.3-44.1c0.3-6.3-0.4-12.7,2.1-18.8c0.9-2.2,0.1-5.2,0.1-7.8c2.7-2.6,6-3.3,9.4-1.8
	c2.9,1.2,6.1,1,8.5,4.2c3,4.1,8.1,6.4,10.5,11.5c2.5,5.3,2.8,9.8-0.1,15c-2,3.6-3.7,7.6-4.3,11.7c-1.5,10.2,0.4,20.4,1.5,30.8
	c1.9-3.1,3.8-6.1,5.6-9.3c6.8-12.1,16-22.5,25.5-32.5c4.2-4.4,10.5-7.2,16.3-9.6c6.8-2.9,15.9,5.7,15.9,14c0,5.9-1.8,10.4-6.8,14.1
	c-5.3,3.9-10.4,8.2-14.6,13.2c-4.2,5-7.2,11-10.6,16.7c-6.7,11.3-13.2,22.8-20.1,34c-3.8,6.2-4.3,13.3-6.3,20.1
	c-0.4,1.4-0.5,3.4-1.5,4.2c-4.8,3.5-4.5,8.3-3.9,13.1c0.9,7.6,2.3,15.2,3.3,22.9c0.7,6.1,1,12.2,1.6,18.3c0.8,8.5,2,17,2.5,25.5
	c0.3,5.6,0.3,11.4-0.8,16.9c-1.5,7.8-8.1,9.5-14.5,4.5c-7.6-5.9-11.5-13.7-12.4-23c-0.8-9.4-0.9-18.9-1.7-28.3
	c-1.2-15.3-1.7-30.7-4.5-45.9c-1.6-8.4-1.2-17.1-2-25.6c-0.2-2.5-0.8-5.2-2-7.4c-8.5-15.6-19.1-29.6-31.6-42.2
	c-4.8-4.8-8.1-11-14.4-14.5c-0.7-0.4-1.2-1.4-1.4-2.2c-2.1-6.6-6.3-12.6-5.9-20C40.6,58.5,42.5,57.6,44.6,56.6z M177.3,64.9
	c0.4-0.4,0.8-0.8,1.1-1.3c0.1-0.1-0.6-0.8-0.7-0.8c-0.5,0.3-0.9,0.7-1.4,1C176.6,64.1,176.8,64.4,177.3,64.9z"/>
<path class="st0" d="M99.4,129.9c1.2-0.3,2.2-0.4,2.9-0.7c9.2-4.4,19.1-6.2,28.9-8.3c7.6-1.6,14.9-4.1,22.4-6.3
	c4.7-1.4,4.7-1.4,11.3,0.5c0.3,1.6,0.4,3.5,0.9,5.2c0.4,1.5,0.8,3.5,1.9,4.2c2.9,2.1,3.3,4.9,3.7,8c1.1,8.2,1,8-6.1,12.5
	c-3,1.9-5.6,4.9-7.9,7.7c-10.9,13.7-17.9,29.6-25.3,45.3c-5.6,11.9-11.8,23.4-17.7,35.1c-2.6,5.2-4.9,10.6-7.6,15.8
	c-2.6,5-5.2,10-8.2,14.8c-1.9,3-4.9,3.3-8.2,2.2c-10.9-3.7-15-10.5-14-22.1c0.5-5.3,1.9-9.9,5.2-14.2c2.5-3.3,3.8-7.4,5.7-11.2
	c4.2-8.3,8.3-16.7,12.6-24.9c2-4,4.2-7.8,6.3-11.7c4.2-7.9,8.3-15.7,12.5-23.7c0.7-1.4,1.1-2.9,1.9-4.9c-9,0.6-16.7,3.4-22.9,8.6
	c-3.6,3.1-6.1,7.8-10.8,9.5c-5,1.8-10.3,3.9-15.4,3.6c-3.6-0.2-7.9-3.7-10-6.9c-2-3-4.3-4.5-7.1-5.9c-0.5-2.9-1-5.6-1.2-7.1
	c3.5-5.9,7-10.6,9.4-15.9c6.2-13.1,12.8-26.2,17.8-39.8c7.8-21,19.2-40.2,27.8-60.8c1.3-3.1,3.1-5.3,7-3.7c1,0.4,2.6,0.7,3.4,0.2
	c3.9-2.8,7.4-0.1,9.5,1.9c2.9,2.7,5,6.7,6.3,10.5c0.6,1.8-0.9,5.3-2.6,6.6c-3.6,2.6-4.9,6.1-6,10c-2.4,8.2-4.4,16.5-7.3,24.5
	c-2.4,6.6-5.8,12.8-8.7,19.1C106.4,114.6,103.1,121.8,99.4,129.9z"/>
<path class="st0" d="M94.5,97.9c-0.9,1.4-1.9,2.8-2.7,4.3c-4.9,9-9.7,18.1-14.7,27c-1.4,2.6-3.5,4.9-5.5,7c-2.5,2.6-7.5,1.1-9.2-2.9
	c-0.9-2.2-1.1-4.7-1-7.1c0.1-10,4.6-18.8,8.8-27.6c4.4-9.1,8.8-18.3,12.9-27.6c3.9-8.7,6.9-17.7,11.2-26.2c5.2-10.2,8.6-12.7,22-6
	c4.5,2.2,7.5,5.2,9.2,9.9c0.4,1,1,2,1.7,2.8c3.3,3.8,5.8,7.9,7.1,13c1.5,5.7,4.8,10.8,7,16.4c2.5,6.4,4.3,13,7,19.3
	c2.6,6.1,5.9,11.9,9.1,17.6c0.9,1.6,3.2,2.3,4.4,3.8c1.1,1.4,2.1,3.5,1.9,5.1c-0.2,1-2.6,2.2-4.1,2.5c-6,1-9.9-2.9-13.7-6.7
	c-9.4-9.3-16.1-20.4-21.5-33c-1.9,1.3-3.7,2.4-5,3.3c-0.1,0.9-0.3,1.2-0.2,1.3c3.7,7.2,2.9,14.8,2.8,22.6
	c-0.1,14.3-0.1,28.6,2.9,42.7c0.2,1.1,0.6,2.3,0.2,3.3c-3.1,9.3,0.8,18.8-1,28.2c-1.9,9.9-0.3,19.7,0.1,29.6
	c0.4,9.4-0.6,18.8-1,28.2c-0.1,2.6,0.2,5.2,0.1,7.8c-0.2,5.9-2.8,8.6-8.7,8.3c-8-0.4-13.3-3.2-16.3-11.1c-3.1-8.2-4.8-16.7-4.8-25.2
	c0.1-9.5,1.4-18.9,2.5-28.3c1.8-15.4,1.5-30.8,0.5-46.3c-1-15.4-0.5-31-0.6-46.4c0-3,0.2-6.1,0.3-9.1C95.7,98.1,95.1,98,94.5,97.9z"
	/>
<path class="st0" d="M64.6,42.8c1.9-2.1,6.5-2,5.2-6.7c6,2.3,11.4,4.4,17.8,6.9c0.7,3.3,3.5,5.7,8.2,6.4c1.5,0.2,4.1,3.2,3.8,3.9
	c-1.7,4.2,1.4,6.2,3.3,8.7c9.4,12.1,18.9,24.3,28.7,36.1c1.9,2.3,5.7,3.1,8.5,4.6c1.5,0.8,3.3,1.5,4.3,2.8c3.2,4.1,2.7,16.8-1,20.5
	c-3.2,3.2-6.7,6.3-10.5,8.9c-6.9,4.8-15.7,12.6-18.9,17.4c9.4,8.3,18.6,16.7,28.1,24.8c3.5,3,7.6,5.3,11.3,8
	c2.1,1.5,4.2,3.1,6.1,4.9c2.7,2.5,2.7,5.3,0.5,8.2c-1.9,2.4-3.6,5-5.5,7.4c-0.7,0.9-1.8,1.6-2.1,2.5c-2,7.2-7.9,10.1-14,12.8
	c-9.6,4.2-17,11.5-24.2,18.8c-5.7,5.7-11.2,11.6-16.8,17.5c-1.9,2-3.6,4.2-5.7,6.7c-1.3-0.9-2.7-1.8-4.4-2.9c-5.4,2-11,3.5-9.8-6.2
	c-7.2-4.3-9.7-10.3-9.2-18.8c0.5-9.4-1.1-18.8-1.5-28.2c-0.6-12.5-0.8-25-1.3-37.5c-0.3-7.9-0.9-15.8-1.1-23.7
	c-0.4-13-1.1-26-0.7-38.9c0.2-6.5,2.5-12.9,3.5-19.4c1.5-9.7,3-19.5,4-29.3c0.2-1.8-1.1-4.4-2.6-5.5C64.8,50.6,63.9,47.2,64.6,42.8z
	 M121.5,198.1c-4.5-0.2-4.3-0.3-6.8-4c-1.7-2.5-3.7-5-6-6.9c-4.3-3.5-8.8-6.5-13.4-9.6c-1-0.7-2.2-0.8-3.5-1.3
	c-3.4,15.1-1,29.6,0.3,44.4C102.2,212.9,111.9,205.5,121.5,198.1z M88.4,136c7.8-7.5,15.3-14.6,22.7-21.9c0.8-0.8,1.4-3.1,0.9-3.9
	c-3.6-6-7.2-12.1-11.4-17.7c-2.3-3.1-5.8-5.4-9.7-8.8c-0.3,2.7-0.6,4-0.6,5.2c0.5,7.7-1.4,15.1-2.4,22.6
	C86.9,119.5,85.3,127.6,88.4,136z"/>
<path class="st0" d="M71.6,258.2c-7.8-5.9-13.2-12.6-16.5-20.9c-0.7-1.7-0.1-3.9-0.1-5.9c-0.2-7.2-0.6-14.4-0.6-21.7
	c0.1-7.9,0.6-15.7,0.9-23.6c0.4-11.2,1.6-22.4,0.8-33.5c-0.7-9.7,0.4-19.2,0.7-28.8c0.4-9.4-0.1-18.7-0.2-28.1
	c0-4.8-0.5-9.7,0.1-14.4c1.5-11.9-3.1-22.5-6.6-33.3c10.5-8.4,13.1-8.4,24.3,0.4c-2.7,8.8,4.2,14.2,8.7,19.9
	c5.2,6.6,7.9,14.1,11.4,21.4c0.2,0.4,0.2,0.9,0.4,1.3c5.6,10.9,11.2,21.8,16.7,32.8c1.3,2.6,2.3,5.4,3.8,9
	c8.6-31.3,15.8-61.7,28.3-89.9c10.6-2.6,17.9,3.4,25.7,7.7c3.4,1.9,4.4,5.1,3,9.2c-0.6,1.8-0.3,3.2-0.2,4.8
	c0.1,7.4-0.5,14.8-0.7,22.2c-0.1,3.7-0.7,7.5,0.1,11c0.9,4.1,0.1,8,0.3,12c0.3,4.8,0.9,9.6,1.9,14.2c0.7,3.1,0.7,5.9,0.3,9
	c-0.8,5.9-0.5,11.9-1.1,17.8c-0.8,8.3-0.2,16.6-0.3,24.9c0,7.5,0.1,15.2-0.7,22.7c-0.6,5.8-0.8,11.2,0.3,16.9
	c1,5.1,0.3,10.5,2.4,15.5c0.3,0.7,0.1,1.8-0.1,2.6c-1.2,3.6-1.3,7.1-1.1,11c0.2,4.4-1.2,9.1-5,12.4c-2.7-1.6-5.3-3-7.8-4.7
	c-1.2-0.8-2.5-2-3.1-3.3c-4.7-10-8.3-20.1-6.9-31.7c0.9-7.3-0.7-14.9-1.4-22.3c-0.3-2.9-0.6-5.5,0.7-8.3c0.9-1.8,0.7-4.3,0.6-6.4
	c-0.4-15.6-1-31.2-1.2-46.8c-0.1-6.6,0.6-13.1,0.6-19.7c0-4.3-0.9-8.5-3.7-13.7c-1.3,2.9-2.3,4.8-2.9,6.7
	c-3.9,13.4-7.8,26.8-11.6,40.2c-1,3.6-1.7,7.3-2.8,10.9c-1.4,4.6-3,9.1-4.7,13.6c-1.1,2.9-3.4,2.5-5.4,1c-2.9-2.3-5.7-4.8-8.4-7.4
	c-8.5-7.9-14.2-17.8-19.6-28c-3.8-7.2-7.2-14.6-10.9-21.9c-0.7-1.5-2-2.7-3.9-5.3c0,4.4-0.3,7.2,0.2,9.9c1.5,7.7,0.8,15.1-0.7,22.7
	c-1.3,6.8-0.8,14.1-0.1,21.1c0.9,9.2,2.7,18.2,2,27.5c-0.3,3.9,0.7,7.8,1.1,11.7c0.2,2,0.6,4,0.3,5.9c-1.9,9.8-1.6,19.6-2,29.5
	C76.7,244.5,76.8,251.7,71.6,258.2z"/>
<path class="st0" d="M166.2,259.5c-4.7-6.8-9.3-12.2-12.5-18.3c-3.2-6.1-2.6-13.3-2.5-20.1c0.2-8.1,0.4-16.3,1-24.4
	c0.4-5.4-0.9-9.8-4.8-13.7c-12.7-12.8-25.1-25.8-37.6-38.6c-3.7,0.6-5.8,2.5-7.7,5.1c-3.4,4.8-7.4,9.3-10.8,14.1
	c-2.4,3.4-4.5,7-6.1,10.8c-3,7.4-5.9,14.8-5.8,23.2c0.3,12.8-0.5,25.6-0.2,38.3c0.2,8.8-1.9,16.5-7.2,23.5
	c-10.2-5.7-16.1-15-16.2-26.2c-0.1-11,0.2-22,0.1-32.9c-0.2-13.6,0.2-27.3-1.4-40.7c-1.7-14.6-2.2-29.2-3.1-43.8
	c-0.3-5.2,0.1-10.5,0.3-15.8c0.5-10.1,1.4-20.2,1.4-30.3c0-6.9,0.1-14.1-4.8-20.1c3.3-2.7,6.5-5.3,9.8-8c0.5-0.4,1.1-0.7,1.7-0.9
	c5.8-1.6,16.2,4.6,17.9,10.5c0.5,1.7,1.5,3.6,2.8,4.8c3.1,2.6,5.7,5.4,6.8,9.4c0.3,1,0.9,2.1,1.5,2.9c6.3,9,12.6,18,18.9,27
	c0.5,0.7,1.2,1.2,2.6,2.4c2.6-4.4,5.6-8.2,7.4-12.5c2.8-6.7,7.1-12.1,12.1-17.1c3.5-3.5,6.5-7.5,10.4-12c4.3,0.1,7.6-3.6,9.8-8
	c1-1.9,2-3.4,3.6-2.9c5.1,1.6,10.9,1.1,15.3,5c2.3,2.1,3.8,4.1,3.4,7.3c-1,8-0.6,16,0.5,24.1c0.7,4.9-0.8,10-0.3,15
	c1.4,13-0.7,25.9,0.3,38.8c0.6,7.4,1.1,14.9,1.4,22.3c0.3,9,0.2,18.1,0.5,27.1c0.3,7.9,1.1,15.8,1.3,23.7c0.3,10.5,0.6,21,0.3,31.5
	c-0.1,4.1-1.7,8.1-4.7,11.4C169.9,253.4,168.6,255.9,166.2,259.5z M150.6,84.2c-0.5-0.2-0.9-0.3-1.4-0.5c-2.2,2.4-4.7,4.5-6.6,7.1
	c-4.4,6-8.5,12.2-12.9,18.2c-3,4.1-4,7.9-1.1,12.6c4.2,6.7,8,13.7,13.6,19.5c3.4,3.5,6.1,7.6,10.3,12.7c-0.6-12.8-1.2-24-1.5-35.3
	C150.7,107.1,150.7,95.6,150.6,84.2z M94.8,123.3c-2.7-4.5-5.4-8.8-7.9-13.2c-2.4-4.3-5.1-8.4-9.5-12.3c-0.5,17.5,0.8,33.9,2.6,51.7
	C85.3,140.1,89.9,131.9,94.8,123.3z"/>
<path class="st0" d="M75.6,45.1c3-4,7.3-4.8,12.8-2.2c3.3,1.6,7.2,1.9,10.5,3.5c2.9,1.4,5.7,3.3,8,5.6
	c11.9,11.6,19.5,26.4,28.9,39.8c5.2,7.5,8.6,16.3,12.8,24.5c0.5,1,0.6,2.3,0.8,3.4c-3.2,0.8-6.1,2.2-9.1,2.2c-2.9,0-6-0.9-8.8-2
	c-3-1.3-5.8-3.2-8.4-5.2c-2.7-2.1-5.4-4.5-7.7-7.1c-3.8-4.5-7.3-9.3-11.5-14.6c0.1,6.5,0.1,12.2,0.2,18c0,1,0.7,2.1,0.6,3
	c-1.7,8.9,0.7,17.6,1.3,26.3c0.7,9.5,1,19.1,1,28.6c0,8,0.3,15.9,0.7,23.8c0.3,6.1,1.1,12.2,1.5,18.3c0.8,12.7,1.5,25.5,2.1,38.2
	c0.1,3-0.7,5.9-1,8.8c-0.7,0.2-1.3,0.6-1.5,0.4c-4-3.5-9-5-13.4-7.6c-5.9-3.5-6.1-10-6.8-15.9c-0.8-6.9-0.7-14-1.4-20.9
	c-0.6-5.9-1.7-11.7-2.8-17.5c-1.2-6.2-3-12.4-3.8-18.6c-2.9-22.9-3.8-45.8-3.4-68.9c0.1-5.3,0.2-10.5,1.2-15.7
	c0.1-0.4,0.2-0.9,0.1-1.2c-3-8.5-0.7-17.3-1.4-26c-0.3-3,0.1-6.2-0.1-9.2C76.8,53.5,76.2,49.9,75.6,45.1z"/>
<path class="st0" d="M90.8,81.6c-2.7-7.1-7.4-11.2-12.7-15.1c-9.1-6.8-15.6-16-22.3-24.9c3.1-4.9,3.4-5,7.7-3.6
	c5.6,1.8,10.4,4.4,14,9.3c1.6,2.2,4.5,3.3,6.8,5c5.2,3.9,10.4,7.9,15.8,12c8.3-10.2,14.8-21,20.8-32.2c5.7-1.3,10,1.9,14.5,4.4
	c5.4,3,5.9,8.4,6.8,14c-1.2,1.3-2.5,3.2-4.2,4.5c-6.5,4.9-11.1,11.1-14.2,18.5c-1.7,4.2-3.2,8.5-4.3,12.9c-0.3,1.4,0.6,3.4,1.5,4.8
	c2.6,4.1,5.6,7.8,6.8,12.7c0.4,1.8,2.1,3.3,3.3,4.8c7.3,8.8,14.7,17.5,21.8,26.5c3.8,4.8,6.7,12.5,7.2,16.3c-4.2,6-8,11.3-11.6,16.7
	c-6,8.9-11.8,17.9-17.9,26.8c-4.5,6.5-4.5,7.5,0.1,14c4,5.7,7.4,11.9,11.7,17.4c3.7,4.9,8.1,9.3,12.3,13.8
	c7.1,7.5,11.6,16.4,14.2,26.3c0.1,0.4-0.2,0.8-0.5,1.9c-5.7,0.2-10.5-2.7-14.4-6.3c-10.7-9.8-21-20.1-31.3-30.4
	c-1.9-1.8-3.2-4.2-4.9-6.3c-1.6-2.1-3.5-2.7-5.5-0.5c-1.8,1.9-3.9,3.7-5.2,5.9c-3.3,5.4-6.2,11.1-9.4,16.6c-1.5,2.4-3.2,4.8-5.2,6.7
	c-3,2.8-7.1,1.6-7.4-2.4c-0.5-5.4-3.2-9.5-6.1-13.7c-2.3-3.4-2.9-6.8-1.3-10.6c3.2-7.6,5.4-15.6,11-22.3c3-3.6,4.2-8.6,6.5-13.4
	c-1.6-2.6-3.3-5.6-5.2-8.6c-2.7-4-5.6-7.9-8.1-12c-2.5-4-4.8-7.9-9.6-9.6c-0.6-0.2-1.2-0.7-1.6-1.2c-3.3-4.9-6.9-9.7-9.8-14.9
	c-1.8-3.2-2.8-6.6,0.7-10.2c1.8-1.8,2.5-5.1,3.1-7.8c1.7-7.7,6.5-13.8,10.3-20.4C80.1,98.3,85.6,89.9,90.8,81.6z M106.8,173.2
	c5.8-11,11.8-21.9,17.2-33.1c2.2-4.6,3.9-9.8-1.7-14.1c-2-1.5-2.8-4.4-4.4-6.5c-2.4-3.2-3.8-7.4-7.6-9.3
	c-8.9,13.1-17.5,26-26.2,38.9C91.9,157.4,99.3,165.2,106.8,173.2z"/>
<path class="st3" d="M102.9,132.2c14.6-12,29-23.9,43.4-35.8c1.4-1.2,2.8-2.5,4-4.1c3.9-4.8,8.4-7.2,13.1-8.9
	c5.5-2,11.4-2.6,14.9-11.4c0.6-1.4,2.9-1,4.7-1.5c0.2-2,0.5-4.1,0.7-5.9c0.6-0.2,1-0.6,1.4-0.5c2.9,1.1,5.8,2.2,8.7,3.4
	c5.8,2.5,8.9,8,9.3,17.3c0.6,16.7,1.2,33.4,1.4,50.1c0.1,8.7-0.8,17.5-1,26.3c-0.4,13.4,0.7,26.4,3.4,39.1c0.9,4.3,1.5,9.5,0.8,13.7
	c-1.5,8.8-4.3,10.9-10.2,10.9c-6.8,0-13-4-18.9-8.2c-10.9-7.7-21.5-16.5-32.1-25.2c-5.3-4.3-10.3-9.6-15.5-14.3
	c-1.9-1.8-3.7-3.7-5.7-5.1c-7.5-5-14.9-7.8-22.8-0.3c-6.9,6.7-14.5,11.5-21.8,17.4c-2.1,1.7-3.9,4.5-5.9,6.5
	c-7.9,7.8-16,15.4-23.8,23.4c-1.9,1.9-3.2,5.3-4.8,7.9c-1.4,2.2-2.6,5.1-4.2,6.1c-6.3,3.9-6.3,4.8-10.5-3.8
	c-2.8-5.7-5.5-11.7-7.7-18c-1.1-3-1.2-7.1-1.3-10.7c-0.2-5,0.4-10.1,0-15.1c-1.6-23.6-3.8-47.2-5.1-70.8
	c-0.7-12.3-0.1-24.7-0.1-37.7c1.1-2.2,4.2-1.7,4.4-6.9c0.1-3.2,5.3-5.9,7.5-4.7c1.3,0.7,2.8,1.2,3.8,2.5
	c8.4,10.1,16.7,20.3,25.1,30.5c2.8,3.4,5.6,6.4,9.3,8c4.1,1.8,7.8,6.1,11.8,9C87,120.9,94.8,126.4,102.9,132.2z M84.7,147.6
	c-9.1-6.6-18-11.8-26-19.1c-8-7.3-15.2-16.8-23.4-26.1c-2,30.7,5,59.1,5.6,90.6c4.7-4.7,8.6-8.4,12.3-12.4c2.5-2.7,4.6-6.2,7.1-8.7
	C68.1,163.8,76,156.1,84.7,147.6z M176.8,112.7c-1.9,1-3.6,1.6-5.2,2.8c-10.2,7.6-20.4,15.3-30.6,23c-1.4,1.1-3,1.7-4.3,3.2
	c-1.6,1.8-3,4.2-5.4,7.7c18.4,14.5,35.6,28.1,53.7,42.4c-2-8.2-3.8-14.5-5.1-21.1C176.4,152.2,178.4,132.9,176.8,112.7z"/>
</svg>
