<?xml version="1.0" encoding="UTF-8" standalone="no" ?>
<!DOCTYPE svg PUBLIC "-//W3C//DTD SVG 1.1//EN" "http://www.w3.org/Graphics/SVG/1.1/DTD/svg11.dtd">
<svg xmlns="http://www.w3.org/2000/svg" xmlns:xlink="http://www.w3.org/1999/xlink" version="1.1" width="1080" height="1080" viewBox="0 0 1080 1080" xml:space="preserve">
<desc>Created with Fabric.js 5.2.4</desc>
<defs>
</defs>
<g transform="matrix(1 0 0 1 540 540)" id="cc999235-8a08-4b56-9573-e00b7b257dbc"  >
<rect style="stroke: none; stroke-width: 1; stroke-dasharray: none; stroke-linecap: butt; stroke-dashoffset: 0; stroke-linejoin: miter; stroke-miterlimit: 4; fill: rgb(255,255,255); fill-rule: nonzero; opacity: 1; visibility: hidden;" vector-effect="non-scaling-stroke"  x="-540" y="-540" rx="0" ry="0" width="1080" height="1080" />
</g>
<g transform="matrix(1 0 0 1 540 540)" id="76765416-2a51-454c-92fc-60d9a0f9fc18"  >
</g>
<g transform="matrix(1 0 0 1 540 540)"  >
<path style="stroke: none; stroke-width: 1; stroke-dasharray: none; stroke-linecap: butt; stroke-dashoffset: 0; stroke-linejoin: miter; stroke-miterlimit: 4; fill: rgb(0,0,0); fill-opacity: 0; fill-rule: nonzero; opacity: 1;" vector-effect="non-scaling-stroke"  transform=" translate(-513, -513)" d="M 645 1025 C 430 1025 215.5 1025 1 1025 C 1 683.666687 1 342.333344 1 1 C 342.333344 1 683.666687 1 1025 1 C 1025 342.333344 1025 683.666687 1025 1025 C 898.5 1025 772 1025 645 1025 M 480.831818 994.942383 C 491.254028 994.897278 501.676239 994.852173 512.899963 994.594177 C 513.66803 994.396118 514.431335 994.046997 515.204895 994.022644 C 526.957397 993.652405 538.722107 993.53656 550.462097 992.934265 C 565.737061 992.150513 581.007935 991.176147 596.251831 989.93158 C 609.118774 988.881104 621.960571 987.463806 634.78479 985.963135 C 650.662842 984.105103 666.532776 982.144897 682.358276 979.89209 C 686.656677 979.280212 690.78241 977.455322 695.831543 976.012817 C 712.006348 972.087524 728.507019 969.155396 744.272522 963.982727 C 763.480957 957.680481 782.071106 949.493713 801.636658 941.958984 C 803.070068 941.151611 804.493103 940.325073 805.938599 939.539917 C 833.912903 924.342957 856.981934 903.697998 875.181824 877.552979 C 890.034119 856.217041 900.590637 832.934937 908.148804 808.103088 C 915.638977 783.494507 919.786987 758.274414 920.706665 732.752563 C 921.463806 711.742004 920.47876 690.574219 918.768921 669.598145 C 917.329712 651.942688 914.24353 634.368408 910.994568 616.924255 C 903.229004 575.228821 889.171387 535.544922 871.003296 497.308746 C 857.700012 469.311005 841.562073 443.005554 822.128662 418.819031 C 816.144897 411.371765 809.502258 404.453949 803.161377 397.293732 C 802.671753 397.354431 802.182129 397.415161 801.692505 397.475861 C 798.136536 453.282166 778.755249 502.930389 744.189331 548.12384 C 743.336487 542.99707 742.654419 539.061646 742.030334 535.117065 C 739.278503 517.723816 737.436646 500.128632 733.609924 482.9758 C 726.37915 450.564453 718.467896 418.286377 710.002808 386.173431 C 698.674866 343.200012 683.14093 301.621216 664.426819 261.370514 C 652.810303 236.385406 639.869873 211.941437 626.240906 187.984344 C 607.221619 154.552277 584.319031 123.767464 557.431702 96.185905 C 541.096802 79.429199 523.096191 64.533859 502.830627 52.590912 C 485.379303 42.306438 466.896576 34.780365 446.854095 31.40881 C 446.664734 31.967678 446.446136 32.27615 446.484161 32.548855 C 448.640472 48.019524 451.985016 63.433186 452.704315 78.968597 C 453.645447 99.296196 453.551453 119.685814 450.223328 140.023621 C 445.735779 167.446716 437.484497 193.615082 425.102112 218.273911 C 409.023651 250.293427 391.402313 281.534454 375.023682 313.407898 C 352.302948 357.623291 335.04953 403.76889 326.789093 453.069519 C 322.440948 479.020386 319.161163 505.01181 318.99115 531.348389 C 318.979126 533.214478 318.83078 535.079651 318.745789 536.945251 C 318.233978 537.20636 317.722137 537.467468 317.210297 537.728577 C 312.251709 532.722351 306.807343 528.105774 302.422363 522.639343 C 287.05661 503.483765 277.087311 481.423889 268.74115 458.512421 C 258.804749 431.235321 252.082092 403.091217 246.187363 374.7547 C 242.87587 358.836121 240.662155 342.689819 237.917557 326.652313 C 236.895203 320.678436 235.769455 314.72226 234.406403 307.185089 C 224.832642 317.906342 215.844971 327.04303 207.923965 337.026031 C 188.747894 361.194092 173.046463 387.522095 159.730713 415.396057 C 142.017303 452.475677 128.891174 491.099426 120.192825 531.144043 C 115.4496 552.980469 112.269958 575.184021 109.096024 597.323914 C 107.061432 611.516235 105.314102 625.888123 105.227562 640.190369 C 105.078972 664.746704 105.999039 689.326843 107.134773 713.866211 C 107.689568 725.853455 109.166763 737.871887 111.235115 749.699768 C 115.317825 773.046936 120.928619 796.029541 128.92392 818.426636 C 143.862473 860.273926 166.072021 897.321716 199.617584 926.960205 C 205.018463 931.731995 211.233902 935.581787 217.691971 940.171936 C 218.817688 941.11377 219.820847 942.285034 221.088074 942.962097 C 234.205887 949.970459 246.900543 958.0672 260.636719 963.544373 C 276.593048 969.90686 293.410797 974.171082 309.981903 978.900085 C 316.952118 980.88916 324.248291 981.736023 332.177307 983.058716 C 333.080902 983.371033 333.965057 983.871155 334.891052 983.966736 C 344.962646 985.006897 355.048065 985.916199 365.11554 986.993408 C 380.184113 988.605591 395.221832 990.535522 410.309875 991.926331 C 421.430573 992.951477 432.603943 993.501587 443.766357 993.951965 C 455.798859 994.4375 467.845947 994.560364 480.831818 994.942383 z" stroke-linecap="round" />
</g>
<g transform="matrix(1 0 0 1 540.09 513.52)"  >
<path style="stroke: none; stroke-width: 1; stroke-dasharray: none; stroke-linecap: butt; stroke-dashoffset: 0; stroke-linejoin: miter; stroke-miterlimit: 4; fill: rgb(30,105,145); fill-rule: nonzero; opacity: 1;" vector-effect="non-scaling-stroke"  transform=" translate(-513.09, -486.52)" d="M 217.072784 939.857788 C 211.233902 935.581787 205.018463 931.731995 199.617584 926.960205 C 166.072021 897.321716 143.862473 860.273926 128.92392 818.426636 C 120.928619 796.029541 115.317825 773.046936 111.235115 749.699768 C 109.166763 737.871887 107.689568 725.853455 107.134773 713.866211 C 105.999039 689.326843 105.078972 664.746704 105.227562 640.190369 C 105.314102 625.888123 107.061432 611.516235 109.096024 597.323914 C 112.269958 575.184021 115.4496 552.980469 120.192825 531.144043 C 128.891174 491.099426 142.017303 452.475677 159.730713 415.396057 C 173.046463 387.522095 188.747894 361.194092 207.923965 337.026031 C 215.844971 327.04303 224.832642 317.906342 234.406403 307.185089 C 235.769455 314.72226 236.895203 320.678436 237.917557 326.652313 C 240.662155 342.689819 242.87587 358.836121 246.187363 374.7547 C 252.082092 403.091217 258.804749 431.235321 268.74115 458.512421 C 277.087311 481.423889 287.05661 503.483765 302.422363 522.639343 C 306.807343 528.105774 312.251709 532.722351 317.210297 537.728577 C 317.722137 537.467468 318.233978 537.20636 318.745789 536.945251 C 318.83078 535.079651 318.979126 533.214478 318.99115 531.348389 C 319.161163 505.01181 322.440948 479.020386 326.789093 453.069519 C 335.04953 403.76889 352.302948 357.623291 375.023682 313.407898 C 391.402313 281.534454 409.023651 250.293427 425.102112 218.273911 C 437.484497 193.615082 445.735779 167.446716 450.223328 140.023621 C 453.551453 119.685814 453.645447 99.296196 452.704315 78.968597 C 451.985016 63.433186 448.640472 48.019524 446.484161 32.548855 C 446.446136 32.27615 446.664734 31.967678 446.854095 31.40881 C 466.896576 34.780365 485.379303 42.306438 502.830627 52.590912 C 523.096191 64.533859 541.096802 79.429199 557.431702 96.185905 C 584.319031 123.767464 607.221619 154.552277 626.240906 187.984344 C 639.869873 211.941437 652.810303 236.385406 664.426819 261.370514 C 683.14093 301.621216 698.674866 343.200012 710.002808 386.173431 C 718.467896 418.286377 726.37915 450.564453 733.609924 482.9758 C 737.436646 500.128632 739.278503 517.723816 742.030334 535.117065 C 742.654419 539.061646 743.336487 542.99707 744.189331 548.12384 C 778.755249 502.930389 798.136536 453.282166 801.692505 397.475861 C 802.182129 397.415161 802.671753 397.354431 803.161377 397.293732 C 809.502258 404.453949 816.144897 411.371765 822.128662 418.819031 C 841.562073 443.005554 857.700012 469.311005 871.003296 497.308746 C 889.171387 535.544922 903.229004 575.228821 910.994568 616.924255 C 914.24353 634.368408 917.329712 651.942688 918.768921 669.598145 C 920.47876 690.574219 921.463806 711.742004 920.706665 732.752563 C 919.786987 758.274414 915.638977 783.494507 908.148804 808.103088 C 900.590637 832.934937 890.034119 856.217041 875.181824 877.552979 C 856.981934 903.697998 833.912903 924.342957 805.938599 939.539917 C 804.493103 940.325073 803.070068 941.151611 801.27478 941.633362 C 801.046143 940.655518 801.114319 939.981873 801.321777 939.354187 C 813.895996 901.325073 816.287842 862.386475 811.118347 822.919128 C 802.833069 759.663147 778.244568 703.482605 736.817017 654.860352 C 730.282104 647.190552 722.964661 640.187439 715.133484 631.955811 C 714.48645 634.884705 714.135132 636.276367 713.874573 637.684875 C 711.239685 651.931213 708.93219 666.246643 705.928101 680.414368 C 700.286011 707.023315 693.183594 733.210144 681.010071 757.7276 C 675.04248 769.746277 667.840454 780.912842 657.730835 789.940979 C 656.251038 791.26239 654.466736 792.242859 652.62207 793.520508 C 652.310303 792.402222 652.153564 792.08551 652.143738 791.764282 C 652.087708 789.933105 652.049255 788.100952 652.036438 786.268921 C 651.84967 759.653503 646.947815 733.940125 637.074707 709.220581 C 626.448181 682.614685 611.831299 658.107239 597.14325 633.632568 C 584.242188 612.13562 572.056519 590.252075 563.767944 566.466064 C 558.415039 551.104675 555.322998 535.299866 553.767822 519.056335 C 552.172302 502.391235 553.416504 485.936737 555.426147 469.485535 C 556.237366 462.84491 555.933105 462.207428 549.26001 463.657867 C 529.598755 467.931274 511.796234 476.409882 495.249146 487.632477 C 461.957214 510.211914 436.497589 540.178345 415.175079 573.825439 C 375.412018 636.571777 352.660645 705.642273 340.019043 778.389465 C 338.757233 785.650818 337.573212 792.925781 336.353119 800.194397 C 335.895233 800.282166 335.437347 800.369873 334.979462 800.457581 C 310.065338 770.257996 296.286469 735.351135 292.580902 695.44458 C 290.679749 697.086365 289.427124 697.907959 288.503571 699.006287 C 280.499878 708.524841 271.850037 717.596619 264.71521 727.732483 C 233.620972 771.905579 216.624481 821.394287 212.275085 875.007751 C 210.51767 896.670898 211.488739 918.537842 217.072784 939.857788 z" stroke-linecap="round" />
</g>
<g transform="matrix(1 0 0 1 539.58 750.06)"  >
<path style="stroke: none; stroke-width: 1; stroke-dasharray: none; stroke-linecap: butt; stroke-dashoffset: 0; stroke-linejoin: miter; stroke-miterlimit: 4; fill: rgb(50,215,230); fill-rule: nonzero; opacity: 1;" vector-effect="non-scaling-stroke"  transform=" translate(-512.58, -723.06)" d="M 217.382385 940.014893 C 211.488739 918.537842 210.51767 896.670898 212.275085 875.007751 C 216.624481 821.394287 233.620972 771.905579 264.71521 727.732483 C 271.850037 717.596619 280.499878 708.524841 288.503571 699.006287 C 289.427124 697.907959 290.679749 697.086365 292.580902 695.44458 C 296.286469 735.351135 310.065338 770.257996 334.979462 800.457581 C 335.437347 800.369873 335.895233 800.282166 336.353119 800.194397 C 337.573212 792.925781 338.757233 785.650818 340.019043 778.389465 C 352.660645 705.642273 375.412018 636.571777 415.175079 573.825439 C 436.497589 540.178345 461.957214 510.211914 495.249146 487.632477 C 511.796234 476.409882 529.598755 467.931274 549.26001 463.657867 C 555.933105 462.207428 556.237366 462.84491 555.426147 469.485535 C 553.416504 485.936737 552.172302 502.391235 553.767822 519.056335 C 555.322998 535.299866 558.415039 551.104675 563.767944 566.466064 C 572.056519 590.252075 584.242188 612.13562 597.14325 633.632568 C 611.831299 658.107239 626.448181 682.614685 637.074707 709.220581 C 646.947815 733.940125 651.84967 759.653503 652.036438 786.268921 C 652.049255 788.100952 652.087708 789.933105 652.143738 791.764282 C 652.153564 792.08551 652.310303 792.402222 652.62207 793.520508 C 654.466736 792.242859 656.251038 791.26239 657.730835 789.940979 C 667.840454 780.912842 675.04248 769.746277 681.010071 757.7276 C 693.183594 733.210144 700.286011 707.023315 705.928101 680.414368 C 708.93219 666.246643 711.239685 651.931213 713.874573 637.684875 C 714.135132 636.276367 714.48645 634.884705 715.133484 631.955811 C 722.964661 640.187439 730.282104 647.190552 736.817017 654.860352 C 778.244568 703.482605 802.833069 759.663147 811.118347 822.919128 C 816.287842 862.386475 813.895996 901.325073 801.321777 939.354187 C 801.114319 939.981873 801.046143 940.655518 800.920776 941.714905 C 782.071106 949.493713 763.480957 957.680481 744.272522 963.982727 C 728.507019 969.155396 712.006348 972.087524 695.206177 975.733765 C 694.434021 973.471252 694.265381 971.489136 694.144043 969.504089 C 693.413208 957.548645 693.595947 945.455444 691.804993 933.66156 C 685.730957 893.66095 669.46637 858.164978 642.770935 827.604675 C 640.645508 825.171387 638.264282 822.961487 635.016846 819.640381 C 634.177612 823.790405 633.711548 826.485413 633.082764 829.141907 C 628.369873 849.054138 624.060547 869.076599 618.716675 888.818726 C 615.79657 899.606506 610.38501 909.530396 602.875916 918.055176 C 601.557922 919.551453 599.848083 920.702515 597.794373 922.463013 C 597.356689 920.533081 596.969849 919.601624 596.958618 918.665588 C 596.590942 888.157532 586.583008 860.555481 571.831177 834.312439 C 565.382996 822.841248 559.103943 811.260559 553.180176 799.511719 C 539.854248 773.081909 534.371094 745.209778 538.545654 715.672424 C 539.276123 710.503906 538.215393 709.630432 533.052856 710.979797 C 521.948853 713.881958 511.938232 719.090576 502.646149 725.743835 C 486.581268 737.246521 473.701141 751.80719 462.68219 768.037842 C 433.37088 811.212708 417.758514 859.588074 409.017426 910.529419 C 408.102844 915.859375 407.286743 921.206177 406.424927 926.545227 C 405.932129 926.606689 405.439301 926.668213 404.946472 926.729675 C 390.319305 907.532654 382.378784 885.587463 380.000031 861.356567 C 379.193054 860.949036 378.386078 860.541504 377.579071 860.133972 C 376.721619 861.752441 376.137024 863.608948 374.964874 864.953003 C 361.659546 880.210266 351.817078 897.534058 344.575409 916.328979 C 336.306274 937.790833 331.265289 959.951965 331.396301 983.102173 C 324.248291 981.736023 316.952118 980.88916 309.981903 978.900085 C 293.410797 974.171082 276.593048 969.90686 260.636719 963.544373 C 246.900543 958.0672 234.205887 949.970459 221.088074 942.962097 C 219.820847 942.285034 218.817688 941.11377 217.382385 940.014893 z" stroke-linecap="round" />
</g>
<g transform="matrix(1 0 0 1 540.27 879.63)"  >
<path style="stroke: none; stroke-width: 1; stroke-dasharray: none; stroke-linecap: butt; stroke-dashoffset: 0; stroke-linejoin: miter; stroke-miterlimit: 4; fill: rgb(115,240,255); fill-rule: nonzero; opacity: 1;" vector-effect="non-scaling-stroke"  transform=" translate(-513.27, -852.63)" d="M 331.786804 983.080444 C 331.265289 959.951965 336.306274 937.790833 344.575409 916.328979 C 351.817078 897.534058 361.659546 880.210266 374.964874 864.953003 C 376.137024 863.608948 376.721619 861.752441 377.579071 860.133972 C 378.386078 860.541504 379.193054 860.949036 380.000031 861.356567 C 382.378784 885.587463 390.319305 907.532654 404.946472 926.729675 C 405.439301 926.668213 405.932129 926.606689 406.424927 926.545227 C 407.286743 921.206177 408.102844 915.859375 409.017426 910.529419 C 417.758514 859.588074 433.37088 811.212708 462.68219 768.037842 C 473.701141 751.80719 486.581268 737.246521 502.646149 725.743835 C 511.938232 719.090576 521.948853 713.881958 533.052856 710.979797 C 538.215393 709.630432 539.276123 710.503906 538.545654 715.672424 C 534.371094 745.209778 539.854248 773.081909 553.180176 799.511719 C 559.103943 811.260559 565.382996 822.841248 571.831177 834.312439 C 586.583008 860.555481 596.590942 888.157532 596.958618 918.665588 C 596.969849 919.601624 597.356689 920.533081 597.794373 922.463013 C 599.848083 920.702515 601.557922 919.551453 602.875916 918.055176 C 610.38501 909.530396 615.79657 899.606506 618.716675 888.818726 C 624.060547 869.076599 628.369873 849.054138 633.082764 829.141907 C 633.711548 826.485413 634.177612 823.790405 635.016846 819.640381 C 638.264282 822.961487 640.645508 825.171387 642.770935 827.604675 C 669.46637 858.164978 685.730957 893.66095 691.804993 933.66156 C 693.595947 945.455444 693.413208 957.548645 694.144043 969.504089 C 694.265381 971.489136 694.434021 973.471252 694.784058 975.820923 C 690.78241 977.455322 686.656677 979.280212 682.358276 979.89209 C 666.532776 982.144897 650.662842 984.105103 634.78479 985.963135 C 621.960571 987.463806 609.118774 988.881104 596.251831 989.93158 C 581.007935 991.176147 565.737061 992.150513 550.462097 992.934265 C 538.722107 993.53656 526.957397 993.652405 515.204895 994.022644 C 514.431335 994.046997 513.66803 994.396118 512.186035 994.410278 C 504.685242 994.163818 497.897125 993.999878 491.111877 994.078857 C 487.367706 994.122437 483.628265 994.573792 479.886688 994.841309 C 467.845947 994.560364 455.798859 994.4375 443.766357 993.951965 C 432.603943 993.501587 421.430573 992.951477 410.309875 991.926331 C 395.221832 990.535522 380.184113 988.605591 365.11554 986.993408 C 355.048065 985.916199 344.962646 985.006897 334.891052 983.966736 C 333.965057 983.871155 333.080902 983.371033 331.786804 983.080444 z" stroke-linecap="round" />
</g>
<g transform="matrix(1 0 0 1 523.07 1021.48)"  >
<path style="stroke: none; stroke-width: 1; stroke-dasharray: none; stroke-linecap: butt; stroke-dashoffset: 0; stroke-linejoin: miter; stroke-miterlimit: 4; fill: rgb(60,170,196); fill-rule: nonzero; opacity: 1;" vector-effect="non-scaling-stroke"  transform=" translate(-496.07, -994.48)" d="M 480.359253 994.891846 C 483.628265 994.573792 487.367706 994.122437 491.111877 994.078857 C 497.897125 993.999878 504.685242 994.163818 511.785278 994.516663 C 501.676239 994.852173 491.254028 994.897278 480.359253 994.891846 z" stroke-linecap="round" />
</g>
</svg>