<svg xmlns="http://www.w3.org/2000/svg" fill="none" viewBox="0 0 3341 938" height="938" width="3341">
<mask height="938" width="938" y="0" x="0" maskUnits="userSpaceOnUse" style="mask-type:luminance" id="mask0_3499_11153">
<path fill="white" d="M937.279 0H0V937.279H937.279V0Z"></path>
</mask>
<g mask="url(#mask0_3499_11153)">
<path fill="#136CFF" d="M792.391 0L16.5952 42.8987V822.076L144.745 937.279L920.541 894.382V115.202L792.391 0Z"></path>
<path fill="#60A5FA" d="M792.391 0L16.5952 42.8987L144.745 158.101L920.541 115.202L792.391 0Z" clip-rule="evenodd" fill-rule="evenodd"></path>
<path fill="#0057E5" d="M144.745 158.091L16.5952 42.8887V822.068L144.745 937.271V158.091Z" clip-rule="evenodd" fill-rule="evenodd"></path>
</g>
<path fill="#1A1A1A" d="M3203.84 625.017C3172.94 625.017 3146.27 618.597 3123.79 605.757C3101.45 592.786 3084.26 574.462 3072.22 550.79C3060.18 526.984 3054.17 498.965 3054.17 466.733C3054.17 435.036 3060.18 407.218 3072.22 383.278C3084.4 359.205 3101.39 340.482 3123.18 327.106C3145 313.6 3170.6 306.846 3200.02 306.846C3219.02 306.846 3236.95 309.92 3253.79 316.074C3270.79 322.092 3285.77 331.453 3298.75 344.159C3311.84 356.864 3322.14 373.047 3329.63 392.707C3337.13 412.234 3340.87 435.504 3340.87 462.521V484.789H3088.28V435.838H3271.26C3271.12 421.93 3268.11 409.559 3262.22 398.725C3256.35 387.759 3248.11 379.132 3237.54 372.846C3227.12 366.56 3214.95 363.417 3201.03 363.417C3186.19 363.417 3173.15 367.028 3161.91 374.251C3150.68 381.339 3141.91 390.701 3135.63 402.337C3129.47 413.839 3126.33 426.477 3126.19 440.253V482.983C3126.19 500.904 3129.47 516.285 3136.02 529.124C3142.58 541.829 3151.75 551.593 3163.51 558.414C3175.28 565.1 3189.05 568.444 3204.84 568.444C3215.41 568.444 3224.97 566.973 3233.54 564.031C3242.09 560.954 3249.52 556.475 3255.8 550.589C3262.08 544.705 3266.85 537.416 3270.05 528.723L3337.87 536.347C3333.57 554.268 3325.42 569.915 3313.38 583.288C3301.48 596.529 3286.24 606.828 3267.65 614.184C3249.05 621.406 3227.78 625.017 3203.84 625.017Z"></path>
<path fill="#1A1A1A" d="M2996.09 208.158V619.013H2923.47V208.158H2996.09Z"></path>
<path fill="#1A1A1A" d="M2671.38 522.317L2671.19 434.649H2682.83L2793.58 310.871H2878.43L2742.21 462.534H2727.16L2671.38 522.317ZM2605.18 619.013V208.158H2677.82V619.013H2605.18ZM2798.59 619.013L2698.27 478.785L2747.22 427.628L2885.46 619.013H2798.59Z"></path>
<path fill="#1A1A1A" d="M2416.95 625.017C2386.2 625.017 2359.79 618.263 2337.72 604.755C2315.77 591.246 2298.85 572.589 2286.95 548.784C2275.18 524.844 2269.29 497.293 2269.29 466.132C2269.29 434.835 2275.32 407.218 2287.36 383.278C2299.4 359.205 2316.37 340.482 2338.32 327.106C2360.39 313.6 2386.46 306.846 2416.56 306.846C2441.58 306.846 2463.7 311.46 2482.98 320.688C2502.37 329.781 2517.81 342.688 2529.32 359.406C2540.81 375.989 2547.37 395.381 2548.99 417.583H2479.57C2476.76 402.738 2470.06 390.368 2459.49 380.47C2449.07 370.439 2435.08 365.425 2417.56 365.425C2402.71 365.425 2389.68 369.436 2378.44 377.46C2367.2 385.352 2358.44 396.72 2352.16 411.564C2346.01 426.411 2342.93 444.198 2342.93 464.929C2342.93 485.925 2346.01 503.981 2352.16 519.093C2358.3 534.072 2366.95 545.641 2378.05 553.8C2389.27 561.824 2402.46 565.835 2417.56 565.835C2428.27 565.835 2437.83 563.83 2446.26 559.817C2454.81 555.671 2461.97 549.721 2467.72 541.964C2473.48 534.207 2477.42 524.778 2479.57 513.677H2548.99C2547.23 535.477 2540.81 554.803 2529.71 571.653C2518.61 588.371 2503.51 601.479 2484.37 610.974C2465.24 620.335 2442.79 625.017 2416.95 625.017Z"></path>
<path fill="#1A1A1A" d="M2087.43 625.017C2056.54 625.017 2029.85 618.597 2007.37 605.757C1985.03 592.786 1967.86 574.462 1955.82 550.79C1943.78 526.984 1937.76 498.965 1937.76 466.733C1937.76 435.036 1943.78 407.218 1955.82 383.278C1967.98 359.205 1984.97 340.482 2006.77 327.106C2028.58 313.6 2054.2 306.846 2083.62 306.846C2102.61 306.846 2120.54 309.92 2137.4 316.074C2154.37 322.092 2169.35 331.453 2182.33 344.159C2195.44 356.864 2205.74 373.047 2213.22 392.707C2220.71 412.234 2224.45 435.504 2224.45 462.521V484.789H1971.86V435.838H2154.84C2154.7 421.93 2151.7 409.559 2145.8 398.725C2139.93 387.759 2131.7 379.132 2121.14 372.846C2110.7 366.56 2098.53 363.417 2084.62 363.417C2069.77 363.417 2056.74 367.028 2045.5 374.251C2034.26 381.339 2025.5 390.701 2019.22 402.337C2013.07 413.839 2009.91 426.477 2009.79 440.253V482.983C2009.79 500.904 2013.07 516.285 2019.61 529.124C2026.16 541.829 2035.33 551.593 2047.1 558.414C2058.88 565.1 2072.66 568.444 2088.44 568.444C2099 568.444 2108.56 566.973 2117.12 564.031C2125.69 560.954 2133.1 556.475 2139.39 550.589C2145.69 544.705 2150.43 537.416 2153.63 528.723L2221.45 536.347C2217.18 554.268 2209.02 569.915 2196.98 583.288C2185.06 596.529 2169.82 606.828 2151.23 614.184C2132.63 621.406 2111.37 625.017 2087.43 625.017Z"></path>
<path fill="#1A1A1A" d="M1601.26 734.551V310.857H1672.69V361.813H1676.91C1680.66 354.324 1685.92 346.366 1692.75 337.94C1699.58 329.381 1708.81 322.092 1720.44 316.074C1732.07 309.92 1746.92 306.846 1764.98 306.846C1788.79 306.846 1810.25 312.931 1829.39 325.101C1848.65 337.138 1863.89 354.993 1875.12 378.664C1886.5 402.204 1892.18 431.091 1892.18 465.329C1892.18 499.166 1886.64 527.921 1875.53 551.593C1864.43 575.264 1849.31 593.32 1830.19 605.757C1811.05 618.197 1789.39 624.414 1765.18 624.414C1747.52 624.414 1732.89 621.472 1721.24 615.588C1709.61 609.702 1700.24 602.614 1693.16 594.323C1686.2 585.897 1680.77 577.939 1676.91 570.449H1673.88V734.551H1601.26ZM1672.48 464.929C1672.48 484.856 1675.29 502.309 1680.91 517.288C1686.66 532.267 1694.9 543.969 1705.59 552.395C1716.42 560.687 1729.53 564.833 1744.93 564.833C1760.96 564.833 1774.41 560.554 1785.24 551.993C1796.08 543.3 1804.24 531.464 1809.72 516.486C1815.34 501.372 1818.15 484.186 1818.15 464.929C1818.15 445.804 1815.4 428.817 1809.92 413.972C1804.44 399.127 1796.28 387.492 1785.45 379.066C1774.6 370.64 1761.1 366.427 1744.93 366.427C1729.39 366.427 1716.22 370.507 1705.4 378.664C1694.57 386.823 1686.33 398.257 1680.71 412.969C1675.23 427.681 1672.48 445 1672.48 464.929Z"></path>
<path fill="#1A1A1A" d="M1464.27 321.098C1462.4 303.578 1454.52 289.935 1440.6 280.173C1426.83 270.41 1408.9 265.527 1386.83 265.527C1371.32 265.527 1358.01 267.868 1346.91 272.549C1335.81 277.231 1327.31 283.583 1321.43 291.607C1315.54 299.632 1312.53 308.793 1312.4 319.092C1312.4 327.651 1314.34 335.074 1318.22 341.36C1322.23 347.646 1327.65 352.996 1334.47 357.409C1341.29 361.689 1348.85 365.298 1357.14 368.242C1365.43 371.184 1373.79 373.658 1382.22 375.664L1420.74 385.294C1436.26 388.905 1451.16 393.786 1465.48 399.939C1479.92 406.091 1492.84 413.848 1504.19 423.21C1515.71 432.571 1524.8 443.873 1531.49 457.114C1538.18 470.353 1541.52 485.867 1541.52 503.655C1541.52 527.728 1535.37 548.927 1523.06 567.248C1510.75 585.439 1492.98 599.681 1469.7 609.98C1446.56 620.144 1418.53 625.226 1385.63 625.226C1353.66 625.226 1325.91 620.277 1302.37 610.382C1278.96 600.485 1260.64 586.04 1247.39 567.049C1234.29 548.057 1227.2 524.921 1226.13 497.637H1299.36C1300.43 511.947 1304.84 523.85 1312.6 533.345C1320.36 542.842 1330.46 549.93 1342.9 554.61C1355.47 559.292 1369.51 561.632 1385.03 561.632C1401.21 561.632 1415.39 559.224 1427.56 554.409C1439.87 549.462 1449.5 542.641 1456.45 533.948C1463.42 525.12 1466.95 514.823 1467.08 503.053C1466.95 492.354 1463.81 483.527 1457.66 476.572C1451.51 469.485 1442.88 463.599 1431.78 458.918C1420.81 454.103 1407.97 449.825 1393.25 446.079L1346.51 434.042C1312.67 425.348 1285.92 412.176 1266.25 394.522C1246.73 376.735 1236.96 353.128 1236.96 323.706C1236.96 299.499 1243.52 278.3 1256.62 260.111C1269.87 241.923 1287.86 227.814 1310.59 217.782C1333.33 207.617 1359.08 202.535 1387.84 202.535C1417 202.535 1442.54 207.617 1464.47 217.782C1486.56 227.814 1503.86 241.788 1516.45 259.71C1529.01 277.498 1535.51 297.96 1535.9 321.098H1464.27Z"></path>
</svg>
