<svg xmlns="http://www.w3.org/2000/svg" viewBox="0 0 600 600">
  <rect width="600" height="600" fill="black"/>
  <g stroke="white" stroke-width="10" stroke-linecap="round" fill="none">
    <path d="M80 520L80 420L160 360L160 200L260 150L260 90"/>
    <path d="M520 80L420 120L360 200L360 320L260 380L260 510"/>
    <path d="M160 200L80 160L80 80"/>
    <path d="M260 150L340 90L420 140"/>
    <path d="M360 200L440 260L520 220"/>
    <path d="M360 320L440 380L520 340"/>
    <path d="M260 380L180 440L100 400"/>
    <path d="M260 510L340 470L420 520"/>
    <path d="M340 470L340 410L420 360L420 260"/>
  </g>
  <g fill="white">
    <circle cx="80" cy="80" r="24"/>
    <circle cx="80" cy="160" r="18"/>
    <circle cx="160" cy="200" r="16"/>
    <circle cx="160" cy="360" r="16"/>
    <circle cx="80" cy="420" r="18"/>
    <circle cx="80" cy="520" r="24"/>
    <circle cx="260" cy="90" r="16"/>
    <circle cx="260" cy="150" r="14"/>
    <circle cx="260" cy="380" r="14"/>
    <circle cx="260" cy="510" r="20"/>
    <circle cx="340" cy="90" r="16"/>
    <circle cx="360" cy="200" r="16"/>
    <circle cx="360" cy="320" r="14"/>
    <circle cx="420" cy="120" r="18"/>
    <circle cx="420" cy="260" r="16"/>
    <circle cx="420" cy="360" r="16"/>
    <circle cx="420" cy="520" r="22"/>
    <circle cx="520" cy="80" r="26"/>
    <circle cx="520" cy="220" r="20"/>
    <circle cx="520" cy="340" r="18"/>
  </g>
</svg>
